<svg width="89" height="92" fill="none" xmlns="http://www.w3.org/2000/svg"><path d="M45.245 34.987c1.771 3.01 4.815 5.713 9.204 5.713 2.543 0 4.73-.862 6.565-2.173-1.512 3.286-2.365 6.941-2.365 10.223 0 .65.032 1.313.099 1.98a35.968 35.968 0 0 0-4.212-3.108c-3.255-2.036-6.894-3.472-10.537-3.472-3.642 0-7.281 1.436-10.536 3.472a35.283 35.283 0 0 0-3.619 2.612c.038-.5.055-.995.055-1.484 0-3.114-.834-6.517-2.23-9.613a11.746 11.746 0 0 0 5.88 1.563c4.39 0 7.434-2.702 9.205-5.713a16.92 16.92 0 0 0 1.245-2.628 16.93 16.93 0 0 0 1.246 2.628Zm21.833-4.309c1.566-3.455 2.421-7.3 2.421-10.528 0-3.254-.798-6.917-2.545-9.887-1.771-3.01-4.815-5.713-9.205-5.713-5.44 0-9.252 3.947-11.483 7.794a26.679 26.679 0 0 0-2.209 4.951c-.58-1.883-1.354-3.728-2.309-5.406C39.514 7.959 35.701 4 30.25 4c-4.389 0-7.433 2.702-9.204 5.713-1.723 2.93-2.524 6.533-2.545 9.753-.232 3.333.409 7.13 1.796 10.562-1.759-1.115-3.769-1.828-5.997-1.828-3.863 0-6.689 2.023-8.393 4.729C4.287 35.5 3.65 38.679 3.65 41.6c0 4.35 1.63 9.268 4.145 13.12 2.432 3.724 6.376 7.43 11.455 7.43.119 0 .237-.002.353-.006-2.958 4.892-4.953 10.273-4.953 15.206 0 3.667 1.346 6.599 3.917 8.468C20.936 87.541 23.86 88 26.399 88c4.028 0 7.48-1.347 10.24-2.424l.04-.015c2.952-1.153 5.072-1.961 7.32-1.961 1.928 0 3.867.77 6.716 1.938l.062.026C53.374 86.629 56.715 88 60.5 88c2.364 0 5.467-.27 8.074-1.775 2.938-1.694 4.776-4.678 4.776-8.875 0-4.945-2.004-10.34-4.973-15.24.3.027.609.04.923.04 5.312 0 9.269-3.647 11.69-7.472 2.465-3.898 3.91-8.805 3.91-13.078 0-3.067-.84-6.24-2.512-8.748-1.695-2.541-4.459-4.652-8.138-4.652-2.766 0-5.165.99-7.171 2.478Z" stroke="#FFC59E" stroke-width="7" stroke-linecap="round" stroke-linejoin="round"/></svg>