<svg width="142" height="112" fill="none" xmlns="http://www.w3.org/2000/svg"><mask id="path-1-outside-1_376_1636" maskUnits="userSpaceOnUse" x="0" y="0" width="142" height="112" fill="#000"><path fill="#fff" d="M0 0h142v112H0z"/><path fill-rule="evenodd" clip-rule="evenodd" d="M34.507 111C18.729 111 9.816 94.784 6.715 87.813-1.895 68.514-.72 48.448 9.862 34.14c1.622-2.193 3.416-3.863 4.497-4.869.405-.377.71-.66.867-.844a30 30 0 0 1 11.387-5.973c3.336-.913 7.631-1.015 8.823-.916 3.134.273 10.178 3.072 12.609 7.015.438.71.79 1.47 1.051 2.264a13.448 13.448 0 0 1-1.215 10.534c5.185-.957 11.977-3.387 11.977-9.654V6.116A5.116 5.116 0 0 1 64.974 1H76.305a5.116 5.116 0 0 1 5.116 5.116v25.582c0 6.267 6.792 8.697 11.977 9.654a13.448 13.448 0 0 1-1.215-10.534c.26-.794.613-1.554 1.052-2.264 2.43-3.942 9.475-6.742 12.609-7.015 1.191-.099 5.486.003 8.823.916a30.002 30.002 0 0 1 11.386 5.973c.157.183.462.467.867.844h.001c1.08 1.006 2.875 2.676 4.496 4.869 10.583 14.307 11.757 34.373 3.147 53.672-3.101 6.97-12.013 23.187-27.792 23.187a26.665 26.665 0 0 1-9.897-1.845c-.283-.103-1.018-.541-1.888-1.117-5.024-2.715-14.397-10.17-9.563-28.738a23.91 23.91 0 0 1 6.938-7.974 68.731 68.731 0 0 1-9.432-3.934l-.304-.154c-3.312-1.639-7.252-2.709-11.237-3.033-4.565.144-9.152 1.22-12.813 3.033l-.305.154a68.736 68.736 0 0 1-9.432 3.934 23.911 23.911 0 0 1 6.938 7.974c4.693 18.025-4.002 25.577-9.111 28.487-1.028.697-1.939 1.25-2.262 1.368A26.664 26.664 0 0 1 34.507 111Zm55.437-13.363c.18.23.366.474.56.729 1.53 2.011 3.554 4.668 7.056 6.036 3.298 1.289 6.473 1.5 9.212 1.481 12.765 0 20.424-14.09 23.118-20.15 7.851-17.598 6.884-35.747-2.586-48.55a24.344 24.344 0 0 0-21.033-10.535c-3.658.31-8.1 2.23-9.21 5.733a10.05 10.05 0 0 0 3.774 10.178 2.557 2.557 0 0 1-1.653 4.513c-.933 0-22.867-.202-22.867-15.374V6.116h-11.35v25.582c0 15.172-21.934 15.374-22.868 15.374a2.558 2.558 0 0 1-1.653-4.513 10.051 10.051 0 0 0 3.774-10.178c-1.11-3.503-5.552-5.424-9.21-5.733a24.343 24.343 0 0 0-21.033 10.534c-9.47 12.804-10.437 30.953-2.586 48.55 2.694 6.061 10.353 20.151 23.118 20.151 2.74.019 5.914-.192 9.212-1.481 3.503-1.368 5.526-4.025 7.057-6.036l.001-.002c.14-.184.275-.362.407-.533 1.689-4.43 2.382-9.93.157-16.137-2.502-4.413-6.087-7.339-10.465-9.132a2.558 2.558 0 0 1 1.038-4.889l.039-.003c.463-.038 5.118-.413 14.031-4.87l.307-.153a30.688 30.688 0 0 1 14.31-3.183 30.688 30.688 0 0 1 14.31 3.183l.306.153c8.914 4.457 13.568 4.832 14.032 4.87l.038.003a2.558 2.558 0 0 1 1.039 4.889c-4.38 1.793-7.964 4.719-10.465 9.132-2.193 6.116-1.552 11.547.083 15.943ZM72.649 52.163V41.93a2.558 2.558 0 0 0-5.117 0v10.233a2.558 2.558 0 1 0 5.117 0ZM18.08 40.223a34.558 34.558 0 0 0-5.991 13.58 2.558 2.558 0 0 0 2.504 3.082 2.558 2.558 0 0 0 2.5-2.047 29.573 29.573 0 0 1 5.098-11.588 14.99 14.99 0 0 1 11.243-6.436 2.558 2.558 0 0 0 0-5.117 19.938 19.938 0 0 0-15.354 8.527ZM125.63 78.729a34.555 34.555 0 0 1-5.991 13.578 19.938 19.938 0 0 1-15.354 8.526 2.558 2.558 0 1 1 0-5.116 14.992 14.992 0 0 0 11.243-6.436 29.573 29.573 0 0 0 5.098-11.588 2.558 2.558 0 0 1 3.026-1.993 2.558 2.558 0 0 1 1.978 3.029Z"/></mask><path fill-rule="evenodd" clip-rule="evenodd" d="M34.507 111C18.729 111 9.816 94.784 6.715 87.813-1.895 68.514-.72 48.448 9.862 34.14c1.622-2.193 3.416-3.863 4.497-4.869.405-.377.71-.66.867-.844a30 30 0 0 1 11.387-5.973c3.336-.913 7.631-1.015 8.823-.916 3.134.273 10.178 3.072 12.609 7.015.438.71.79 1.47 1.051 2.264a13.448 13.448 0 0 1-1.215 10.534c5.185-.957 11.977-3.387 11.977-9.654V6.116A5.116 5.116 0 0 1 64.974 1H76.305a5.116 5.116 0 0 1 5.116 5.116v25.582c0 6.267 6.792 8.697 11.977 9.654a13.448 13.448 0 0 1-1.215-10.534c.26-.794.613-1.554 1.052-2.264 2.43-3.942 9.475-6.742 12.609-7.015 1.191-.099 5.486.003 8.823.916a30.002 30.002 0 0 1 11.386 5.973c.157.183.462.467.867.844h.001c1.08 1.006 2.875 2.676 4.496 4.869 10.583 14.307 11.757 34.373 3.147 53.672-3.101 6.97-12.013 23.187-27.792 23.187a26.665 26.665 0 0 1-9.897-1.845c-.283-.103-1.018-.541-1.888-1.117-5.024-2.715-14.397-10.17-9.563-28.738a23.91 23.91 0 0 1 6.938-7.974 68.731 68.731 0 0 1-9.432-3.934l-.304-.154c-3.312-1.639-7.252-2.709-11.237-3.033-4.565.144-9.152 1.22-12.813 3.033l-.305.154a68.736 68.736 0 0 1-9.432 3.934 23.911 23.911 0 0 1 6.938 7.974c4.693 18.025-4.002 25.577-9.111 28.487-1.028.697-1.939 1.25-2.262 1.368A26.664 26.664 0 0 1 34.507 111Zm55.437-13.363c.18.23.366.474.56.729 1.53 2.011 3.554 4.668 7.056 6.036 3.298 1.289 6.473 1.5 9.212 1.481 12.765 0 20.424-14.09 23.118-20.15 7.851-17.598 6.884-35.747-2.586-48.55a24.344 24.344 0 0 0-21.033-10.535c-3.658.31-8.1 2.23-9.21 5.733a10.05 10.05 0 0 0 3.774 10.178 2.557 2.557 0 0 1-1.653 4.513c-.933 0-22.867-.202-22.867-15.374V6.116h-11.35v25.582c0 15.172-21.934 15.374-22.868 15.374a2.558 2.558 0 0 1-1.653-4.513 10.051 10.051 0 0 0 3.774-10.178c-1.11-3.503-5.552-5.424-9.21-5.733a24.343 24.343 0 0 0-21.033 10.534c-9.47 12.804-10.437 30.953-2.586 48.55 2.694 6.061 10.353 20.151 23.118 20.151 2.74.019 5.914-.192 9.212-1.481 3.503-1.368 5.526-4.025 7.057-6.036l.001-.002c.14-.184.275-.362.407-.533 1.689-4.43 2.382-9.93.157-16.137-2.502-4.413-6.087-7.339-10.465-9.132a2.558 2.558 0 0 1 1.038-4.889l.039-.003c.463-.038 5.118-.413 14.031-4.87l.307-.153a30.688 30.688 0 0 1 14.31-3.183 30.688 30.688 0 0 1 14.31 3.183l.306.153c8.914 4.457 13.568 4.832 14.032 4.87l.038.003a2.558 2.558 0 0 1 1.039 4.889c-4.38 1.793-7.964 4.719-10.465 9.132-2.193 6.116-1.552 11.547.083 15.943ZM72.649 52.163V41.93a2.558 2.558 0 0 0-5.117 0v10.233a2.558 2.558 0 1 0 5.117 0ZM18.08 40.223a34.558 34.558 0 0 0-5.991 13.58 2.558 2.558 0 0 0 2.504 3.082 2.558 2.558 0 0 0 2.5-2.047 29.573 29.573 0 0 1 5.098-11.588 14.99 14.99 0 0 1 11.243-6.436 2.558 2.558 0 0 0 0-5.117 19.938 19.938 0 0 0-15.354 8.527ZM125.63 78.729a34.555 34.555 0 0 1-5.991 13.578 19.938 19.938 0 0 1-15.354 8.526 2.558 2.558 0 1 1 0-5.116 14.992 14.992 0 0 0 11.243-6.436 29.573 29.573 0 0 0 5.098-11.588 2.558 2.558 0 0 1 3.026-1.993 2.558 2.558 0 0 1 1.978 3.029Z" fill="#FFC59E"/><path d="m6.715 87.813.914-.407-.914.407ZM34.507 111l.006-1h-.006v1ZM9.862 34.14l-.804-.594.804.595Zm4.497-4.868-.651-.76-.016.014-.015.014.682.732Zm0 0 .65.76.016-.014.015-.014-.681-.732Zm.867-.844-.643-.765-.062.051-.052.061.757.653Zm11.387-5.973.264.965-.264-.965Zm8.823-.916.086-.996h-.003l-.083.996Zm12.609 7.015-.852.524.852-.524Zm1.051 2.264.958-.287-.004-.013-.004-.012-.95.312Zm-1.215 10.534-.868-.497-1.072 1.872 2.121-.392-.181-.983Zm45.517 0-.181.983 2.121.392-1.072-1.872-.868.497Zm-1.215-10.534-.95-.312-.004.012-.004.013.958.287Zm1.052-2.264.85.524-.85-.524Zm12.609-7.015-.083-.996h-.004l.087.996Zm8.823.916.264-.964-.264.964Zm11.386 5.973.757-.653-.052-.06-.062-.052-.643.765Zm.867.844-.681.732.006.005.006.006.669-.743Zm0 0 .695-.72-.013-.012-.013-.011-.669.743Zm.001 0-.695.72.007.006.006.006.682-.732Zm4.496 4.869-.804.594.804-.594Zm3.147 53.672-.913-.408-.001.001.914.407ZM106.772 111v-1h-.005l.005 1Zm-9.897-1.845.365-.931-.011-.004-.011-.004-.343.939Zm-1.888-1.117.553-.834-.038-.024-.04-.022-.475.88ZM85.424 79.3l-.88-.474-.057.106-.03.116.968.252Zm6.938-7.974.59.807 1.565-1.145-1.84-.61-.315.948Zm-9.432-3.934.453-.892-.002-.001-.45.893Zm-.304-.154.45-.893-.006-.003-.444.896Zm-11.237-3.033.08-.997-.055-.005-.057.002.032 1Zm-12.813 3.033-.444-.896-.007.003.45.893Zm-.305.154-.45-.893-.002.001.452.892Zm-9.432 3.934-.315-.949-1.84.611 1.565 1.145.59-.807Zm6.938 7.974.968-.252-.03-.116-.057-.106-.881.474Zm-9.111 28.487-.495-.869-.034.02-.032.022.56.827Zm-2.262 1.368-.342-.939-.012.004-.011.004.365.931Zm46.1-10.79-.796.607.796-.606Zm-.56-.728-.938.349.055.145.095.123.788-.617Zm7.617 6.765-.364.932.364-.932Zm9.211 1.481v-1h-.007l.007 1Zm23.118-20.15-.913-.407h-.001l.914.407Zm-2.586-48.55-.824.566.009.014.011.014.804-.595Zm-21.033-10.535-.04-1-.022.002-.022.001.084.997Zm-9.21 5.733-.953-.303-.014.044-.01.045.978.214Zm3.774 10.178.645-.764-.021-.018-.023-.017-.601.8Zm.751 2.835.939.343-.939-.343Zm-2.404 1.678.001-1v1ZM76.315 6.116h1v-1h-1v1Zm-11.35 0v-1h-1v1h1ZM42.096 47.072v-1 1Zm-2.404-1.678-.94.343.94-.343Zm.751-2.835-.601-.798-.022.016-.022.018.645.764Zm3.774-10.178.976-.214-.01-.045-.013-.044-.953.303Zm-9.21-5.733.085-.997-.023-.002h-.022l-.04.999ZM13.975 37.182l.804.595.01-.014.01-.014-.823-.567Zm-2.586 48.55.914-.405v-.001l-.914.407Zm23.118 20.151.007-1h-.007v1Zm9.212-1.481.364.932-.364-.932Zm7.057-6.036-.795-.607.795.607Zm.001-.002.795.607v-.002l-.795-.605Zm.407-.533.792.612.09-.117.053-.139-.935-.356Zm.157-16.137.941-.337-.029-.081-.042-.075-.87.493Zm-10.465-9.132-.413.91.017.008.017.007.379-.925Zm1.038-4.889.007 1 .256-.001.224-.125-.487-.874Zm.039-.003.08.996-.08-.996Zm14.031-4.87-.447-.894.447.894Zm.307-.153-.444-.897-.003.002.447.895Zm14.31-3.183-.023 1h.045l-.022-1Zm14.31 3.183.447-.895-.004-.002-.444.897Zm.306.153.448-.894-.448.894Zm14.032 4.87-.08.996.08-.996Zm.038.003-.486.874.224.125.256.001.006-1Zm2.486 2.027-.978.207.978-.207Zm-1.447 2.862.379.925.016-.007.017-.007-.412-.911Zm-10.465 9.132-.87-.493-.043.075-.029.08.942.338ZM12.09 53.802l.978.206.002-.008-.98-.198Zm5.99-13.578.808.59.007-.01.007-.01-.821-.57ZM14.068 56.83l-.206.979h.006l.2-.98Zm.527.054-.002 1h.005l-.003-1Zm2.5-2.047.98.2v-.002l-.98-.198Zm5.098-11.588.808.59.007-.011.008-.011-.823-.568Zm11.243-6.436v-1h-.037l-.036.002.073.998Zm0-5.117v-1h-.026l-.025.002.05.998Zm86.204 60.61-.807-.591-.007.01-.007.01.821.57Zm5.991-13.58-.979-.205-.001.008.98.198Zm-21.345 22.105v1h.025l.026-.001-.051-.999Zm0-5.116v1h.036l.037-.002-.073-.998Zm11.243-6.436-.808-.59-.008.011-.007.01.823.569Zm5.098-11.588-.98-.2v.002l.98.198Zm2.499-2.047.002-1h-.004l.002 1Zm.527.054.206-.979h-.005l-.201.979ZM5.802 88.219c1.571 3.534 4.628 9.443 9.323 14.483C19.824 107.746 26.243 112 34.507 112v-2c-7.514 0-13.441-3.855-17.918-8.661-4.481-4.811-7.43-10.495-8.96-13.933l-1.827.813Zm3.256-54.673C-1.783 48.203-2.922 68.666 5.802 88.22l1.827-.815C-.868 68.362.34 48.693 10.666 34.735l-1.608-1.19Zm4.62-5.006c-1.083 1.007-2.938 2.732-4.62 5.006l1.608 1.19c1.561-2.112 3.295-3.727 4.374-4.732l-1.363-1.464Zm.03-.027 1.301 1.518-1.301-1.518Zm.761-.738c-.112.13-.362.365-.792.765l1.363 1.464c.381-.355.74-.687.944-.923l-1.515-1.306Zm11.88-6.284a31.002 31.002 0 0 0-11.766 6.172l1.287 1.53a29 29 0 0 1 11.007-5.773l-.528-1.93Zm9.17-.948c-1.288-.107-5.703-.002-9.17.948l.528 1.929c3.205-.878 7.38-.975 8.476-.884l.166-1.993Zm13.377 7.486c-1.362-2.209-3.931-3.998-6.445-5.253-2.526-1.261-5.196-2.082-6.929-2.233l-.173 1.992c1.4.122 3.82.838 6.208 2.03 2.4 1.198 4.568 2.78 5.636 4.513l1.703-1.05Zm1.15 2.477c-.285-.868-.67-1.7-1.15-2.477l-1.703 1.05c.397.643.717 1.332.953 2.05l1.9-.623ZM48.75 41.849a14.448 14.448 0 0 0 1.305-11.318l-1.916.573c.976 3.267.57 6.792-1.125 9.751l1.736.994Zm10.11-10.151c0 2.695-1.433 4.59-3.586 5.977-2.185 1.407-5.03 2.224-7.574 2.694l.363 1.966c2.642-.487 5.786-1.364 8.293-2.978 2.539-1.634 4.503-4.088 4.503-7.66h-2Zm0-25.582v25.582h2V6.116h-2ZM64.973 0a6.116 6.116 0 0 0-6.116 6.116h2A4.116 4.116 0 0 1 64.974 2V0Zm1.098 0h-1.098v2h1.098V0Zm9.135 0h-9.135v2h9.135V0Zm1.098 0h-1.098v2h1.098V0Zm6.116 6.116A6.116 6.116 0 0 0 76.305 0v2a4.116 4.116 0 0 1 4.116 4.116h2Zm0 25.582V6.116h-2v25.582h2Zm11.159 8.67c-2.544-.469-5.389-1.286-7.573-2.693-2.154-1.386-3.586-3.282-3.586-5.977h-2c0 3.571 1.964 6.025 4.503 7.659 2.507 1.614 5.651 2.49 8.293 2.978l.363-1.967Zm-2.355-9.837a14.448 14.448 0 0 0 1.306 11.318l1.735-.994a12.448 12.448 0 0 1-1.125-9.751l-1.916-.573Zm1.158-2.502c-.479.777-.865 1.609-1.15 2.477l1.9.623a9.632 9.632 0 0 1 .953-2.05l-1.703-1.05Zm13.374-7.486c-1.733.15-4.403.972-6.928 2.233-2.515 1.255-5.084 3.044-6.446 5.253l1.703 1.05c1.069-1.734 3.237-3.316 5.636-4.514 2.388-1.192 4.807-1.908 6.208-2.03l-.173-1.992Zm9.174.948c-3.468-.95-7.883-1.055-9.17-.948l.166 1.993c1.095-.091 5.27.006 8.476.884l.528-1.93Zm11.765 6.172a30.993 30.993 0 0 0-11.765-6.172l-.528 1.929a28.995 28.995 0 0 1 11.006 5.774l1.287-1.531Zm.906.877c-.43-.4-.68-.635-.792-.765l-1.514 1.306c.203.236.562.568.943.923l1.363-1.464Zm-.013-.011-1.338 1.486 1.338-1.486Zm.026.023-1.389 1.44 1.389-1.44Zm4.606 4.994c-1.682-2.274-3.537-3.999-4.619-5.006l-1.363 1.464c1.079 1.005 2.813 2.62 4.374 4.731l1.608-1.19Zm3.256 54.674c8.725-19.554 7.586-40.017-3.256-54.674l-1.608 1.19c10.325 13.958 11.534 33.626 3.038 52.67l1.826.814ZM106.772 112c8.264 0 14.683-4.254 19.382-9.298 4.695-5.04 7.752-10.95 9.323-14.483l-1.827-.813c-1.529 3.438-4.478 9.122-8.959 13.933-4.478 4.806-10.404 8.661-17.919 8.661v2Zm-10.263-1.914A27.669 27.669 0 0 0 106.778 112l-.011-2a25.661 25.661 0 0 1-9.527-1.776l-.73 1.862Zm-2.074-1.214c.444.294.86.557 1.206.762.32.19.65.373.891.461l.686-1.879-.044-.02a3.535 3.535 0 0 1-.124-.062 9.915 9.915 0 0 1-.389-.22c-.31-.184-.696-.428-1.121-.71l-1.105 1.668Zm-9.978-29.824c-2.468 9.48-1.336 16.247 1.166 21.029 2.491 4.763 6.274 7.428 8.889 8.841l.95-1.76c-2.41-1.302-5.825-3.722-8.067-8.008-2.232-4.266-3.369-10.51-1.003-19.598l-1.935-.504Zm7.314-8.529a24.912 24.912 0 0 0-7.227 8.307l1.761.947a22.91 22.91 0 0 1 6.648-7.64L91.77 70.52Zm-9.293-2.235a69.723 69.723 0 0 0 9.569 3.991l.63-1.898a67.734 67.734 0 0 1-9.294-3.877l-.905 1.784Zm-.302-.153.304.154.9-1.786-.304-.154-.9 1.786Zm-10.868-2.93c3.868.315 7.684 1.354 10.874 2.934l.888-1.793c-3.433-1.699-7.497-2.8-11.6-3.134l-.162 1.993Zm-12.289 2.934c3.517-1.741 7.96-2.79 12.401-2.93l-.063-2c-4.688.148-9.419 1.253-13.225 3.137l.887 1.793Zm-.298.15.305-.154-.9-1.786-.305.154.9 1.786Zm-9.566 3.99a69.722 69.722 0 0 0 9.569-3.991l-.905-1.784a67.727 67.727 0 0 1-9.295 3.877l.63 1.898Zm7.503 6.551a24.91 24.91 0 0 0-7.228-8.307l-1.181 1.614a22.91 22.91 0 0 1 6.647 7.64l1.762-.947Zm-9.497 29.83c2.661-1.515 6.29-4.259 8.633-9.001 2.35-4.759 3.346-11.406.95-20.607l-1.935.504c2.297 8.824 1.292 14.965-.808 19.217-2.109 4.268-5.382 6.755-7.83 8.149l.99 1.738Zm-2.414 1.439c.268-.098.658-.319 1.042-.551.414-.251.914-.573 1.438-.929l-1.122-1.655c-.504.341-.974.644-1.352.873-.19.115-.351.208-.479.277a4.39 4.39 0 0 1-.155.08c-.042.02-.06.026-.057.026l.685 1.879ZM34.501 112c3.514.02 6.999-.63 10.269-1.914l-.731-1.862A25.661 25.661 0 0 1 34.513 110l-.012 2ZM91.3 97.76a70.05 70.05 0 0 0-.568-.74l-1.575 1.234c.176.223.357.462.552.718l1.591-1.212Zm6.625 5.711c-3.212-1.255-5.086-3.69-6.625-5.711l-1.591 1.212c1.523 2.001 3.695 4.879 7.489 6.362l.727-1.863Zm8.841 1.412c-2.684.018-5.713-.19-8.84-1.412l-.728 1.863c3.467 1.354 6.787 1.568 9.582 1.549l-.014-2Zm22.211-19.556c-1.327 2.986-3.865 7.916-7.612 12.085-3.75 4.172-8.607 7.471-14.592 7.471v2c6.78 0 12.135-3.746 16.08-8.134 3.947-4.391 6.585-9.535 7.952-12.61l-1.828-.812Zm-2.476-47.55c9.207 12.448 10.217 30.199 2.477 47.549l1.826.814c7.962-17.845 7.038-36.394-2.695-49.553l-1.608 1.19Zm-20.189-10.13a23.344 23.344 0 0 1 20.169 10.102l1.648-1.133a25.343 25.343 0 0 0-21.897-10.967l.08 1.998Zm-8.296 5.036c.452-1.427 1.611-2.612 3.185-3.494 1.568-.879 3.451-1.4 5.155-1.545l-.168-1.993c-1.955.166-4.12.76-5.965 1.794-1.84 1.031-3.456 2.558-4.114 4.633l1.907.605Zm3.421 9.078a9.051 9.051 0 0 1-3.398-9.167l-1.953-.427a11.051 11.051 0 0 0 4.148 11.191l1.203-1.597Zm1.089 3.976a3.557 3.557 0 0 0-1.045-3.942l-1.29 1.528c.5.423.682 1.112.457 1.727l1.878.687Zm-3.344 2.335a3.556 3.556 0 0 0 3.344-2.335l-1.878-.687a1.558 1.558 0 0 1-1.464 1.022l-.002 2ZM75.316 31.698c0 8.227 6.005 12.322 11.755 14.32 5.76 2.004 11.613 2.054 12.112 2.054v-2c-.434 0-6.016-.051-11.455-1.942-5.45-1.895-10.412-5.488-10.412-12.432h-2Zm0-25.582v25.582h2V6.116h-2Zm-10.35 1h11.35v-2h-11.35v2Zm1 24.582V6.116h-2v25.582h2ZM42.096 48.072c.5 0 6.351-.05 12.112-2.053 5.75-2 11.755-6.094 11.755-14.321h-2c0 6.944-4.962 10.537-10.412 12.432-5.44 1.891-11.021 1.942-11.455 1.942v2Zm-3.343-2.335a3.558 3.558 0 0 0 3.344 2.335l-.002-2c-.654 0-1.24-.408-1.464-1.022l-1.878.687Zm1.045-3.942a3.558 3.558 0 0 0-1.045 3.942l1.878-.687a1.558 1.558 0 0 1 .458-1.727l-1.29-1.528Zm3.442-9.2a9.051 9.051 0 0 1-3.398 9.166l1.203 1.597a11.05 11.05 0 0 0 4.148-11.191l-1.953.427Zm-8.317-4.95c1.704.143 3.588.665 5.155 1.544 1.574.882 2.733 2.067 3.185 3.494l1.907-.605c-.658-2.075-2.274-3.602-4.113-4.633-1.845-1.035-4.011-1.628-5.965-1.794l-.169 1.993ZM14.8 37.748a23.343 23.343 0 0 1 20.168-10.102l.08-1.998a25.343 25.343 0 0 0-21.897 10.967l1.649 1.133Zm-2.498 47.577c-7.74-17.35-6.73-35.101 2.477-47.55l-1.607-1.189C3.438 49.748 2.514 68.296 10.476 86.14l1.826-.814Zm22.205 19.557c-5.985 0-10.842-3.299-14.592-7.47-3.747-4.17-6.285-9.1-7.612-12.086l-1.828.812c1.367 3.075 4.006 8.219 7.953 12.61 3.944 4.388 9.299 8.134 16.079 8.134v-2Zm8.848-1.412c-3.127 1.222-6.157 1.43-8.841 1.412l-.014 2c2.795.019 6.115-.195 9.583-1.549l-.728-1.863Zm6.625-5.711c-1.539 2.02-3.413 4.456-6.625 5.711l.728 1.863c3.793-1.483 5.965-4.361 7.488-6.362l-1.59-1.212Zm.003-.004-.002.003 1.59 1.214v-.002l-1.588-1.215Zm.41-.536c-.135.174-.272.355-.411.538l1.59 1.211.404-.526-1.583-1.223Zm.006-15.188c2.132 5.944 1.47 11.196-.149 15.443l1.869.712c1.758-4.612 2.483-10.362.163-16.83l-1.883.675Zm-9.902-8.545c4.188 1.716 7.592 4.497 9.974 8.7l1.74-.986c-2.621-4.624-6.387-7.693-10.956-9.564l-.758 1.85Zm-2.047-3.995a3.558 3.558 0 0 0 2.013 3.98l.825-1.821a1.558 1.558 0 0 1-.881-1.743l-1.957-.416Zm3.458-2.819a3.558 3.558 0 0 0-3.458 2.819l1.957.415a1.558 1.558 0 0 1 1.514-1.234l-.013-2Zm-.036 0-.038.003-.04.004a1.033 1.033 0 0 0-.366.12l.973 1.747a1.009 1.009 0 0 1-.379.12h-.006.017l-.16-1.994Zm13.665-4.767c-8.8 4.4-13.331 4.74-13.665 4.767l.161 1.993c.593-.047 5.372-.459 14.398-4.972l-.894-1.788Zm.307-.154-.307.154.894 1.788.307-.153-.894-1.789Zm14.779-3.287a31.688 31.688 0 0 0-14.776 3.285l.888 1.793a29.688 29.688 0 0 1 13.843-3.079l.045-2Zm14.731 3.285a31.688 31.688 0 0 0-14.776-3.285l.045 2c4.734-.106 9.487.92 13.843 3.078l.888-1.793Zm.31.156-.306-.154-.895 1.789.307.153.895-1.788Zm13.665 4.767c-.334-.027-4.864-.367-13.664-4.767l-.895 1.788c9.026 4.513 13.805 4.924 14.398 4.972l.161-1.993Zm.444.126a1.001 1.001 0 0 0-.365-.119l-.04-.004-.04-.003-.16 1.993.018.002h-.007a.845.845 0 0 1-.149-.028 1.048 1.048 0 0 1-.23-.093l.973-1.748Zm2.978 2.693a3.557 3.557 0 0 0-3.458-2.819l-.012 2a1.558 1.558 0 0 1 1.514 1.234l1.956-.415Zm-2.013 3.98a3.557 3.557 0 0 0 2.013-3.98l-1.956.415a1.559 1.559 0 0 1-.882 1.744l.825 1.822Zm-10.007 8.715c2.382-4.203 5.785-6.984 9.974-8.7l-.758-1.85c-4.57 1.871-8.336 4.94-10.956 9.564l1.74.986Zm.15 15.102c-1.567-4.214-2.18-9.4-.079-15.257l-1.883-.675c-2.285 6.374-1.615 12.05.088 16.629l1.874-.697ZM71.65 41.93v10.233h2V41.93h-2Zm-1.559-1.558c.861 0 1.559.698 1.559 1.558h2a3.558 3.558 0 0 0-3.559-3.558v2Zm-1.558 1.558c0-.86.698-1.558 1.558-1.558v-2a3.558 3.558 0 0 0-3.558 3.558h2Zm0 10.233V41.93h-2v10.233h2Zm1.558 1.558c-.86 0-1.558-.698-1.558-1.558h-2a3.558 3.558 0 0 0 3.558 3.558v-2Zm1.559-1.558c0 .86-.698 1.558-1.559 1.558v2a3.558 3.558 0 0 0 3.559-3.558h-2ZM13.069 54a33.559 33.559 0 0 1 5.819-13.186l-1.614-1.181a35.557 35.557 0 0 0-6.165 13.971l1.96.396Zm1.204 1.852a1.558 1.558 0 0 1-1.205-1.844l-1.957-.411a3.558 3.558 0 0 0 2.75 4.213l.412-1.958Zm.322.033c-.11 0-.22-.012-.328-.034l-.4 1.96c.239.048.482.073.725.074l.003-2Zm1.518-1.247a1.558 1.558 0 0 1-1.522 1.247l.006 2a3.558 3.558 0 0 0 3.476-2.847l-1.96-.4Zm5.27-11.977a30.574 30.574 0 0 0-5.27 11.98l1.96.395A28.575 28.575 0 0 1 23 43.839l-1.616-1.178Zm11.979-6.845a15.991 15.991 0 0 0-11.993 6.866l1.646 1.136a13.99 13.99 0 0 1 10.493-6.007l-.146-1.995Zm1.63-1.56c0 .86-.697 1.558-1.557 1.558v2a3.558 3.558 0 0 0 3.558-3.559h-2Zm-1.557-1.559c.86 0 1.558.698 1.558 1.558h2a3.558 3.558 0 0 0-3.558-3.558v2Zm-14.533 8.098a18.938 18.938 0 0 1 14.584-8.099l-.102-1.997a20.938 20.938 0 0 0-16.124 8.954l1.642 1.142Zm101.544 52.102a35.567 35.567 0 0 0 6.164-13.972l-1.96-.395a33.571 33.571 0 0 1-5.818 13.186l1.614 1.18Zm-16.11 8.934a20.938 20.938 0 0 0 16.124-8.954l-1.642-1.142a18.94 18.94 0 0 1-14.584 8.099l.102 1.997Zm-3.609-3.557a3.558 3.558 0 0 0 3.558 3.558v-2a1.558 1.558 0 0 1-1.558-1.558h-2Zm3.558-3.558a3.558 3.558 0 0 0-3.558 3.558h2c0-.86.697-1.558 1.558-1.558v-2Zm10.42-6.004a13.992 13.992 0 0 1-10.493 6.007l.146 1.995a15.992 15.992 0 0 0 11.993-6.866l-1.646-1.136Zm4.941-11.218a28.58 28.58 0 0 1-4.926 11.197l1.616 1.178a30.566 30.566 0 0 0 5.27-11.98l-1.96-.395Zm3.477-2.849a3.56 3.56 0 0 0-3.477 2.847l1.96.4a1.558 1.558 0 0 1 1.522-1.247l-.005-2Zm.73.074a3.643 3.643 0 0 0-.726-.074l-.003 2c.11 0 .22.011.328.034l.401-1.96Zm2.755 4.214a3.557 3.557 0 0 0-2.75-4.213l-.411 1.957a1.558 1.558 0 0 1 1.204 1.845l1.957.411Z" fill="#FFC59E" mask="url('#path-1-outside-1_376_1636')"/></svg>