<svg aria-hidden="true" style="width:0;height:0;position:absolute;overflow:hidden" xmlns="http://www.w3.org/2000/svg"><defs><symbol id="icon-apteca" viewBox="0 0 32 32"><path fill="#ffc59e" style="fill:var(--color1,#ffc59e)" d="M4.117 27.883a6.298 6.298 0 0 1 0-8.912l6.618-6.618 5.98 5.98a8.39 8.39 0 0 0-1.718 5.094c0 .76.101 1.496.291 2.197l-2.259 2.259a6.298 6.298 0 0 1-8.912 0zM27.883 4.117a6.298 6.298 0 0 1 0 8.912l-2.259 2.259a8.426 8.426 0 0 0-7.418 1.525l-5.966-5.966 6.731-6.731a6.298 6.298 0 0 1 8.912 0zm-13.35 25.27 1.652-1.651a8.432 8.432 0 0 0 7.242 4.12c4.648 0 8.429-3.781 8.429-8.429a8.432 8.432 0 0 0-4.12-7.242l1.652-1.652c3.294-3.294 3.294-8.626 0-11.92s-8.626-3.294-11.92 0L3.831 16.25l-1.216 1.216c-3.294 3.294-3.294 8.626 0 11.92s8.626 3.294 11.92 0zm7.83.251c-2.97-.507-5.238-3.099-5.238-6.211s2.268-5.705 5.238-6.212v12.423zm2.127 0V17.215c2.97.507 5.238 3.099 5.238 6.212s-2.268 5.705-5.238 6.211z"/></symbol><symbol id="icon-cardiology" viewBox="0 0 37 32"><path fill="#ffc59e" style="fill:var(--color1,#ffc59e)" d="M26.977 0C23.94 0 21.3 1.446 19.343 4.181c-.387.54-.71 1.08-.976 1.582a13.955 13.955 0 0 0-.976-1.582C15.434 1.446 12.795 0 9.757 0 4.132 0-.001 4.682-.001 10.422c0 6.398 5.199 10.777 13.068 17.405 1.466 1.235 2.981 2.511 4.595 3.91a1.076 1.076 0 0 0 1.41 0c1.614-1.399 3.13-2.675 4.595-3.91 7.869-6.628 13.068-11.006 13.068-17.405C36.735 4.683 32.604 0 26.977 0zm-4.696 26.181c-1.257 1.059-2.55 2.148-3.913 3.321a459.402 459.402 0 0 0-3.914-3.321c-4.23-3.563-7.639-6.435-9.787-9.248h5.09c.408 0 .78-.23.963-.595l1.19-2.38 3.342 6.685a1.075 1.075 0 0 0 1.926 0l1.19-2.38 1.19 2.38a1.075 1.075 0 0 0 1.926 0l3.342-6.685 1.19 2.38c.182.365.555.588.963.588h5.09c-2.148 2.813-5.557 5.693-9.787 9.255zm5.362-11.401-1.855-3.71a1.075 1.075 0 0 0-1.926 0l-3.342 6.685-1.19-2.38a1.075 1.075 0 0 0-1.926 0l-1.19 2.38-3.342-6.685a1.075 1.075 0 0 0-1.926 0l-1.855 3.71H3.276c-.732-1.402-1.125-2.829-1.125-4.358 0-4.715 3.27-8.27 7.605-8.27 2.328 0 4.296 1.087 5.848 3.232a12.326 12.326 0 0 1 1.725 3.443 1.077 1.077 0 0 0 2.074-.002c.019-.067 1.913-6.673 7.573-6.673 4.336 0 7.605 3.555 7.605 8.27 0 1.529-.393 2.956-1.125 4.358h-5.815z"/></symbol><symbol id="icon-dermotology" viewBox="0 0 31 32"><path fill="none" stroke="#ffc59e" style="stroke:var(--color1,#ffc59e)" stroke-linejoin="round" stroke-linecap="round" stroke-width="2.435" d="M15.737 12.169c.616 1.047 1.675 1.987 3.202 1.987.884 0 1.645-.3 2.283-.756-.526 1.143-.823 2.414-.823 3.556 0 .226.011.457.034.688a12.621 12.621 0 0 0-1.465-1.081c-1.132-.708-2.398-1.208-3.665-1.208s-2.533.499-3.665 1.208c-.428.268-.85.573-1.259.908.013-.174.019-.346.019-.516 0-1.083-.29-2.267-.776-3.344a4.082 4.082 0 0 0 2.045.544c1.527 0 2.585-.94 3.201-1.987.17-.289.314-.596.433-.914.119.318.263.625.433.914zm7.594-1.498c.545-1.202.842-2.539.842-3.662 0-1.132-.278-2.406-.885-3.439-.616-1.047-1.675-1.987-3.201-1.987-1.892 0-3.218 1.373-3.994 2.711a9.271 9.271 0 0 0-.768 1.722 9.45 9.45 0 0 0-.803-1.88c-.777-1.367-2.103-2.744-4-2.744-1.527 0-2.585.94-3.201 1.987-.599 1.019-.878 2.272-.885 3.392-.081 1.159.142 2.48.625 3.674-.612-.388-1.311-.636-2.086-.636-1.344 0-2.327.703-2.919 1.645-.563.895-.785 2-.785 3.016 0 1.513.567 3.224 1.442 4.563.846 1.295 2.218 2.584 3.985 2.584l.123-.002c-1.029 1.701-1.723 3.573-1.723 5.289 0 1.275.468 2.295 1.362 2.945.824.599 1.842.759 2.725.759 1.401 0 2.602-.469 3.562-.843l.013-.005c1.027-.401 1.765-.682 2.547-.682.67 0 1.345.268 2.336.674l.022.009c.903.371 2.065.847 3.382.847.822 0 1.902-.094 2.808-.617 1.022-.589 1.661-1.627 1.661-3.087 0-1.72-.697-3.596-1.73-5.301.105.009.212.014.321.014 1.848 0 3.224-1.268 4.066-2.599.858-1.356 1.36-3.062 1.36-4.549 0-1.067-.292-2.17-.874-3.043-.589-.884-1.551-1.618-2.83-1.618-.962 0-1.797.344-2.494.862z"/></symbol><symbol id="icon-endocr" viewBox="0 0 41 32"><path fill="#ffc59e" style="fill:var(--color1,#ffc59e)" d="M9.859 31.714c-4.508 0-7.055-4.633-7.94-6.625-2.46-5.514-2.125-11.247.899-15.335.463-.626.976-1.104 1.285-1.391.116-.108.203-.189.248-.241a8.572 8.572 0 0 1 3.253-1.707c.953-.261 2.181-.29 2.521-.262.895.078 2.908.878 3.603 2.004.125.203.226.42.3.647a3.845 3.845 0 0 1-.347 3.01c1.482-.273 3.422-.968 3.422-2.758V1.747c0-.807.654-1.462 1.462-1.462h3.237c.807 0 1.462.654 1.462 1.462v7.309c0 1.791 1.941 2.485 3.422 2.758a3.84 3.84 0 0 1-.347-3.01c.074-.227.175-.444.3-.647.694-1.126 2.707-1.926 3.603-2.004.34-.028 1.567.001 2.521.262a8.558 8.558 0 0 1 3.253 1.707c.045.052.132.133.248.241.309.287.821.765 1.285 1.391 3.024 4.088 3.359 9.821.899 15.335-.886 1.992-3.432 6.625-7.941 6.625a7.625 7.625 0 0 1-2.828-.527c-.081-.029-.291-.155-.539-.319-1.436-.776-4.113-2.906-2.732-8.211a6.838 6.838 0 0 1 1.982-2.278 19.597 19.597 0 0 1-2.695-1.124l-.087-.044c-.946-.468-2.072-.774-3.211-.867-1.304.041-2.615.349-3.661.867l-.087.044c-.869.441-1.77.817-2.695 1.124.822.602 1.5 1.38 1.982 2.278 1.341 5.15-1.143 7.308-2.603 8.139-.294.199-.554.357-.646.391a7.602 7.602 0 0 1-2.828.527zm15.839-3.818.16.208c.438.575 1.015 1.334 2.016 1.725.942.368 1.849.429 2.632.423 3.647 0 5.835-4.026 6.605-5.757 2.243-5.028 1.967-10.213-.739-13.872a6.955 6.955 0 0 0-6.009-3.01c-1.045.088-2.314.637-2.631 1.638a2.871 2.871 0 0 0 1.078 2.908.731.731 0 0 1-.472 1.29c-.267 0-6.534-.058-6.534-4.393V1.747h-3.243v7.309c0 4.335-6.267 4.393-6.533 4.393a.731.731 0 0 1-.472-1.29 2.871 2.871 0 0 0 1.078-2.908c-.317-1.001-1.586-1.55-2.631-1.638a6.955 6.955 0 0 0-6.009 3.01c-2.706 3.658-2.982 8.844-.739 13.872.77 1.732 2.958 5.757 6.605 5.757.783.005 1.69-.055 2.632-.423 1.001-.391 1.579-1.15 2.016-1.725v-.001l.116-.152c.482-1.266.681-2.837.045-4.611-.715-1.261-1.739-2.097-2.99-2.609a.732.732 0 0 1 .296-1.397l.011-.001c.132-.011 1.462-.118 4.009-1.391l.088-.044a8.772 8.772 0 0 1 4.088-.909 8.77 8.77 0 0 1 4.088.909l.088.044c2.547 1.273 3.877 1.381 4.009 1.391l.011.001a.73.73 0 0 1 .297 1.397c-1.251.512-2.275 1.348-2.99 2.609a6.475 6.475 0 0 0 .024 4.555zm-4.941-12.992V11.98a.73.73 0 1 0-1.462 0v2.924a.73.73 0 1 0 1.462 0zM5.166 11.492a9.875 9.875 0 0 0-1.712 3.88.73.73 0 1 0 1.43.295 8.452 8.452 0 0 1 1.457-3.311 4.283 4.283 0 0 1 3.212-1.839.73.73 0 1 0 0-1.462 5.7 5.7 0 0 0-4.387 2.436zm30.728 11.002a9.875 9.875 0 0 1-1.712 3.88 5.7 5.7 0 0 1-4.387 2.436.73.73 0 1 1 0-1.462 4.283 4.283 0 0 0 3.212-1.839 8.452 8.452 0 0 0 1.457-3.311.73.73 0 1 1 1.43.295z"/><path fill="#ffc59e" style="fill:var(--color1,#ffc59e)" d="m1.919 25.089.261-.116-.261.116zm7.94 6.625.002-.286h-.002v.286zM2.818 9.754zm1.284-1.391-.186-.217-.004.004-.004.004.195.209zm0 0 .186.217.004-.004.004-.004-.195-.209zm.248-.241-.184-.219-.018.015-.015.017.216.187zm3.254-1.706zm2.52-.262.025-.285h-.001l-.024.285zm3.603 2.004zm.3.647.274-.082-.001-.004-.001-.004-.271.089zm-.347 3.01-.248-.142-.306.535.606-.112-.052-.281zm13.005 0-.052.281.606.112-.306-.535-.248.142zm-.347-3.01-.271-.089-.001.004-.001.004.274.082zm.3-.647zm3.603-2.004-.024-.285h-.001l.025.285zm2.521.262zm3.253 1.706.216-.187-.015-.017-.018-.015-.184.219zm.248.241-.195.209.002.002.002.002.191-.212zm0 0 .199-.206-.004-.003-.004-.003-.191.212zm0 0-.199.206.002.002.002.002.195-.209zm1.285 1.391zm.899 15.335-.261-.116.261.116zm-7.941 6.625v-.286h-.001l.001.286zm-2.828-.527.104-.266-.003-.001-.003-.001-.098.268zm-.539-.319.158-.238-.011-.007-.011-.006-.136.251zm-2.732-8.211-.252-.135-.016.03-.009.033.276.072zm1.982-2.278.169.231.447-.327-.526-.175-.09.271zm-2.695-1.124.129-.255h-.001l-.129.255zm-.087-.044.129-.255-.002-.001-.127.256zm-3.21-.867.023-.285-.016-.001h-.016l.009.286zm-3.661.867-.127-.256-.002.001.129.255zm-.087.044L16.52 19h-.001l.129.255zm-2.695 1.124-.09-.271-.525.175.447.327.169-.231zm1.982 2.278.277-.072-.009-.033-.016-.03-.252.135zm-2.603 8.139-.141-.248-.01.006-.009.006.16.236zm-.646.391-.098-.268-.003.001-.003.001.104.266zm13.171-3.082zm-.16-.209-.268.1.015.042.027.035.225-.176zm2.176 1.933zm2.632.423v-.286h-.002l.002.286zm6.605-5.757-.261-.116.261.116zm-.738-13.872-.235.162.003.004.003.004.23-.17zm-6.01-3.009-.011-.285h-.006l-.006.001.024.285zm-2.631 1.638-.272-.086-.004.012-.003.013.279.061zm1.078 2.908.184-.218-.006-.005-.007-.005-.172.228zm.215.81zm-.687.479v-.286.286zM21.804 1.748h.286v-.286h-.286v.286zm-3.243 0v-.286h-.286v.286h.286zm-6.533 11.701v-.286.286zm-.687-.479zm.215-.81-.172-.228-.006.005-.006.005.184.218zm1.078-2.908.279-.061-.003-.013-.004-.012-.272.086zm-2.632-1.638.024-.285-.006-.001h-.006l-.011.285zm-6.009 3.009.23.17.003-.004.003-.004-.235-.162zm-.739 13.872.261-.116-.261.116zm6.605 5.757.002-.286h-.002v.286zm2.632-.423zm2.016-1.724-.227-.173.227.173zm.001-.001.227.173-.227-.173zm.116-.152.226.175.026-.033.015-.04-.267-.102zm.045-4.611.269-.096-.008-.023-.012-.021-.249.141zm-2.99-2.609-.118.26.005.002.005.002.108-.264zm.297-1.397.002.286h.073l.064-.036-.139-.25zm.01-.001.023.285-.023-.285zm4.009-1.391zm.088-.044-.127-.256h-.001l.128.256zm4.089-.909-.006.286h.012l-.006-.286zm4.088.909.128-.256h-.001l-.127.256zm.088.044zm4.009 1.391-.023.285.023-.285zm.011.001-.139.25.064.036h.073l.002-.286zm.71.579zm-.413.818.108.264.005-.002.005-.002-.118-.26zm-2.991 2.609-.249-.141-.012.021-.008.023.269.096zm-22.22-7.969.28.059v-.002l-.28-.056zm1.712-3.88.231.169.002-.003.002-.003-.235-.163zm-1.147 4.745-.059.28h.002l.057-.28zm.151.016v.286h.001l-.001-.286zm.714-.585.28.057v-.001l-.28-.056zm1.456-3.311.231.168.002-.003.002-.003-.235-.162zm3.213-1.839v-.286h-.01l-.01.001.021.285zm0-1.462V8.77h-.014l.014.285zm24.63 17.317-.231-.169-.002.003-.002.003.235.163zm1.711-3.879-.28-.059v.002l.28.056zm-6.098 6.315v.286h.014l-.015-.285zm0-1.461v.286h.01l.011-.001-.021-.285zm3.212-1.839-.231-.168-.002.003-.002.003.235.162zm1.457-3.311-.28-.057v.001l.28.056zm.714-.585.001-.286h-.001l.001.286zm.15.015.059-.28h-.001l-.057.28zM1.658 25.205c.449 1.01 1.322 2.698 2.664 4.138C5.665 30.784 7.498 32 9.86 32v-.571c-2.147 0-3.84-1.101-5.12-2.475-1.28-1.375-2.123-2.999-2.56-3.981l-.522.232zm.93-15.62c-3.098 4.188-3.423 10.034-.93 15.621l.522-.233c-2.428-5.441-2.082-11.06.868-15.049l-.459-.34zm1.32-1.431c-.309.288-.839.781-1.32 1.43l.459.34c.446-.603.941-1.065 1.25-1.352l-.389-.418zm.009-.008zm.217-.21c-.032.037-.104.104-.226.219l.389.418c.109-.101.212-.196.27-.264l-.433-.373zM7.528 6.14a8.858 8.858 0 0 0-3.362 1.764l.368.437a8.284 8.284 0 0 1 3.145-1.65l-.151-.551zm2.62-.271c-.368-.031-1.629 0-2.62.271l.151.551c.916-.251 2.109-.279 2.422-.253l.047-.569zm3.822 2.139c-.389-.631-1.123-1.142-1.841-1.501-.722-.36-1.484-.595-1.98-.638l-.05.569c.4.035 1.092.239 1.774.58.685.342 1.305.794 1.61 1.29l.486-.3zm.329.708a3.302 3.302 0 0 0-.329-.708l-.486.3c.113.184.205.381.272.586l.543-.178zm-.371 3.241c.562-.981.697-2.15.373-3.234l-.547.164a3.557 3.557 0 0 1-.321 2.786l.496.284zm2.889-2.901c0 .77-.409 1.312-1.024 1.708-.624.402-1.437.635-2.164.769l.104.562c.755-.139 1.653-.39 2.369-.851.725-.467 1.287-1.168 1.287-2.188h-.571zm0-7.308v7.309h.571V1.748h-.571zM18.564 0c-.965 0-1.747.782-1.747 1.748h.571c0-.65.527-1.176 1.176-1.176V.001zm.314 0h-.314v.571h.314V0zm2.61 0h-2.61v.571h2.61V0zm.313 0h-.314v.571h.314V0zm1.748 1.748C23.549.783 22.767 0 21.802 0v.571c.65 0 1.176.527 1.176 1.176h.571zm0 7.308V1.747h-.571v7.309h.571zm3.188 2.478c-.727-.134-1.54-.367-2.164-.769-.615-.396-1.024-.938-1.024-1.708h-.571c0 1.02.561 1.721 1.287 2.188.716.461 1.615.712 2.369.851l.104-.562zm-.673-2.811a4.129 4.129 0 0 0 .373 3.234l.496-.284a3.557 3.557 0 0 1-.321-2.786l-.547-.164zm.331-.715c-.137.222-.247.46-.329.708l.543.178a2.76 2.76 0 0 1 .272-.586l-.486-.3zm3.821-2.139c-.495.043-1.258.278-1.98.638-.718.359-1.452.87-1.841 1.501l.486.3c.305-.495.925-.947 1.61-1.29.682-.341 1.373-.545 1.774-.58l-.049-.569zm2.621.271c-.991-.271-2.252-.301-2.62-.271l.047.569c.313-.026 1.506.002 2.422.253l.151-.551zm3.362 1.764a8.845 8.845 0 0 0-3.361-1.763l-.151.551a8.284 8.284 0 0 1 3.145 1.65l.368-.437zm.259.25a3.896 3.896 0 0 1-.226-.218l-.433.373c.058.067.161.162.269.264l.389-.418zm-.004-.003zm.007.007zm1.316 1.427c-.481-.65-1.011-1.143-1.32-1.43l-.389.418c.308.287.804.749 1.25 1.352l.459-.34zm.931 15.621c2.493-5.587 2.167-11.434-.93-15.621l-.459.34c2.95 3.988 3.295 9.608.868 15.049l.522.233zM30.506 32c2.361 0 4.195-1.215 5.538-2.657 1.341-1.44 2.215-3.128 2.664-4.138l-.522-.232c-.437.982-1.279 2.606-2.56 3.981-1.279 1.373-2.973 2.475-5.12 2.475V32zm-2.932-.547c.934.367 1.93.553 2.934.547l-.003-.571a7.349 7.349 0 0 1-2.722-.507l-.209.532zm-.593-.347c.127.084.246.159.345.218.091.054.186.107.255.132l.196-.537-.013-.006-.035-.018a7.967 7.967 0 0 1-.431-.266l-.316.477zm-2.85-8.521c-.705 2.708-.382 4.642.333 6.008.712 1.361 1.793 2.122 2.54 2.526l.272-.503c-.689-.372-1.664-1.063-2.305-2.288-.638-1.219-.962-3.003-.287-5.599l-.553-.144zm2.089-2.437a7.117 7.117 0 0 0-2.065 2.373l.503.271a6.545 6.545 0 0 1 1.899-2.183l-.338-.461zm-2.655-.638a19.79 19.79 0 0 0 2.734 1.14l.18-.542A19.384 19.384 0 0 1 23.823 19l-.259.51zm-.086-.044.087.044.257-.51-.087-.044-.257.51zm-3.105-.837c1.105.09 2.195.387 3.107.838l.253-.512a9.29 9.29 0 0 0-3.314-.895l-.046.57zm-3.511.838c1.005-.497 2.274-.797 3.543-.837l-.018-.571c-1.34.042-2.691.358-3.779.896l.253.512zm-.086.043.087-.044-.257-.51-.087.044.257.51zm-2.733 1.14a20.04 20.04 0 0 0 2.734-1.14l-.259-.51a19.28 19.28 0 0 1-2.656 1.108l.18.542zm2.144 1.872a7.117 7.117 0 0 0-2.065-2.373l-.338.461a6.545 6.545 0 0 1 1.899 2.183l.503-.271zm-2.713 8.523c.76-.433 1.797-1.217 2.466-2.572.672-1.36.956-3.259.272-5.888l-.553.144c.656 2.521.369 4.276-.231 5.491-.602 1.22-1.538 1.93-2.237 2.328l.283.497zm-.69.411c.077-.028.188-.091.298-.157.118-.072.261-.164.411-.265l-.321-.473a9.48 9.48 0 0 1-.386.249 2.98 2.98 0 0 1-.137.079l-.044.023c-.011.006-.017.007-.017.007l.196.537zM9.857 32a7.899 7.899 0 0 0 2.934-.547l-.209-.532a7.308 7.308 0 0 1-2.722.507l-.003.571zm16.228-4.069c-.055-.072-.109-.144-.162-.211l-.45.352.158.205.455-.346zm1.893 1.632c-.918-.359-1.453-1.054-1.893-1.632l-.455.346c.435.572 1.056 1.394 2.14 1.818l.208-.532zm2.526.404c-.767.005-1.632-.054-2.526-.403l-.208.532c.991.387 1.939.448 2.738.443l-.004-.571zm6.346-5.588c-.379.853-1.104 2.262-2.175 3.453s-2.459 2.134-4.169 2.134v.571c1.937 0 3.467-1.07 4.594-2.324s1.881-2.724 2.272-3.603l-.522-.232zm-.707-13.586c2.631 3.557 2.919 8.628.708 13.585l.522.233c2.275-5.099 2.011-10.398-.77-14.158l-.459.34zm-5.768-2.894a6.671 6.671 0 0 1 5.763 2.886l.471-.324a7.238 7.238 0 0 0-6.256-3.133l.023.571zm-2.371 1.439c.129-.408.46-.746.91-.998a3.75 3.75 0 0 1 1.473-.441l-.048-.569a4.322 4.322 0 0 0-1.704.512c-.526.295-.987.731-1.175 1.324l.545.173zm.978 2.594a2.586 2.586 0 0 1-.971-2.619l-.558-.122a3.159 3.159 0 0 0 1.185 3.198l.344-.457zm.311 1.136a1.014 1.014 0 0 0-.299-1.126l-.369.437a.446.446 0 0 1 .131.493l.537.197zm-.955.667c.427 0 .809-.266.955-.667l-.537-.197a.444.444 0 0 1-.418.292v.571zm-6.819-4.679c0 2.351 1.716 3.521 3.359 4.092 1.646.572 3.318.587 3.461.587v-.571c-.124 0-1.719-.015-3.273-.555-1.557-.541-2.975-1.568-2.975-3.552h-.571zm0-7.308v7.309h.571V1.748h-.571zm-2.958.285h3.243v-.571h-3.243v.571zm.286 7.023V1.747h-.571v7.309h.571zm-6.819 4.679c.143 0 1.815-.014 3.461-.587 1.643-.571 3.359-1.741 3.359-4.092h-.571c0 1.984-1.418 3.011-2.975 3.552-1.554.54-3.149.555-3.273.555v.571zm-.956-.667c.147.401.528.667.955.667v-.571a.445.445 0 0 1-.418-.292l-.537.197zm.299-1.126a1.016 1.016 0 0 0-.299 1.126l.537-.197a.445.445 0 0 1 .131-.493l-.369-.437zm.983-2.629a2.586 2.586 0 0 1-.971 2.619l.344.457a3.158 3.158 0 0 0 1.185-3.198l-.558.122zM9.978 7.898a3.75 3.75 0 0 1 1.473.441c.45.252.781.59.91.998l.545-.173c-.188-.593-.65-1.029-1.175-1.324a4.31 4.31 0 0 0-1.704-.512l-.048.569zm-5.75 2.887a6.668 6.668 0 0 1 5.763-2.886l.023-.571a7.243 7.243 0 0 0-6.256 3.133l.471.324zm-.713 13.594c-2.212-4.957-1.923-10.029.708-13.585l-.459-.34c-2.781 3.76-3.045 9.059-.77 14.158l.522-.233zm6.344 5.588c-1.71 0-3.098-.943-4.169-2.134s-1.796-2.6-2.175-3.453l-.522.232c.39.878 1.144 2.348 2.272 3.603s2.657 2.324 4.594 2.324v-.571zm2.528-.404c-.893.349-1.759.409-2.526.403l-.004.571c.799.005 1.747-.056 2.738-.443l-.208-.532zm1.893-1.632c-.44.577-.975 1.273-1.893 1.632l.208.532c1.084-.424 1.704-1.246 2.14-1.818l-.455-.346zm.001-.001v.001l.454.347v-.001l-.454-.347zm.117-.153-.118.154.455.346.115-.151-.452-.349zm.002-4.339a6.192 6.192 0 0 1-.043 4.412l.534.203a6.773 6.773 0 0 0 .047-4.809l-.538.193zm-2.83-2.442c1.197.49 2.169 1.285 2.85 2.486l.497-.282c-.749-1.321-1.825-2.198-3.13-2.733l-.217.529zm-.584-1.141c-.099.467.14.94.575 1.137l.236-.521a.445.445 0 0 1-.252-.498l-.559-.119zm.988-.806a1.016 1.016 0 0 0-.988.805l.559.119a.445.445 0 0 1 .433-.353l-.004-.571zm-.01 0-.011.001-.011.001a.1.1 0 0 0-.017.003l-.022.005-.022.007c-.008.003-.024.009-.043.02l.278.499c-.019.011-.035.017-.043.02l-.022.007-.021.005-.016.002-.005.001h-.002.005l-.046-.57zm3.904-1.362c-2.514 1.257-3.809 1.354-3.904 1.362l.046.57c.169-.014 1.535-.131 4.114-1.421l-.256-.511zm.087-.044-.088.044.256.511.088-.044-.256-.511zm4.223-.939a9.058 9.058 0 0 0-4.222.939l.254.512a8.492 8.492 0 0 1 3.955-.88l.013-.571zm4.209.939a9.055 9.055 0 0 0-4.222-.939l.013.571a8.474 8.474 0 0 1 3.955.88l.254-.512zm.089.044-.088-.044-.256.511.088.044.256-.511zm3.904 1.362c-.095-.008-1.39-.105-3.904-1.362l-.256.511c2.579 1.289 3.944 1.407 4.114 1.421l.046-.57zm.127.037a.239.239 0 0 0-.044-.02l-.022-.007-.022-.005-.017-.003-.012-.001-.011-.001-.046.57h.005-.002l-.005-.001-.016-.002-.021-.005-.022-.007c-.008-.003-.024-.009-.043-.02l.278-.499zm.85.769a1.016 1.016 0 0 0-.988-.805l-.004.571a.446.446 0 0 1 .433.353l.559-.119zm-.575 1.137c.435-.197.675-.67.575-1.137l-.559.119a.445.445 0 0 1-.252.498l.236.521zm-2.859 2.49c.681-1.201 1.653-1.996 2.85-2.486l-.217-.529c-1.305.535-2.381 1.412-3.13 2.733l.497.282zm.043 4.315a6.19 6.19 0 0 1-.023-4.359l-.538-.193a6.76 6.76 0 0 0 .025 4.751l.536-.199zM20.471 11.98v2.924h.571V11.98h-.571zm-.445-.445c.246 0 .445.199.445.445h.571c0-.561-.455-1.017-1.017-1.017v.571zm-.445.445c0-.246.199-.445.445-.445v-.571c-.561 0-1.017.455-1.017 1.017h.571zm0 2.924V11.98h-.571v2.924h.571zm.445.445a.445.445 0 0 1-.445-.445h-.571c0 .561.455 1.017 1.017 1.017v-.571zm.445-.445a.445.445 0 0 1-.445.445v.571c.561 0 1.017-.455 1.017-1.017h-.571zm-16.737.525a9.594 9.594 0 0 1 1.662-3.767l-.461-.338a10.157 10.157 0 0 0-1.761 3.992l.56.113zm.344.529a.445.445 0 0 1-.344-.527l-.559-.117a1.017 1.017 0 0 0 .786 1.204l.117-.559zm.092.009a.423.423 0 0 1-.094-.01l-.114.56c.068.014.138.021.207.021l.001-.571zm.434-.356a.444.444 0 0 1-.435.356l.002.571c.482-.001.897-.341.993-.813l-.56-.114zm1.506-3.422a8.74 8.74 0 0 0-1.506 3.423l.56.113a8.177 8.177 0 0 1 1.407-3.199l-.462-.337zm3.422-1.956a4.57 4.57 0 0 0-3.427 1.962l.47.325a3.995 3.995 0 0 1 2.998-1.716l-.042-.57zm.466-.446a.445.445 0 0 1-.445.445v.571c.561 0 1.017-.455 1.017-1.017h-.571zm-.445-.445c.246 0 .445.199.445.445h.571c0-.561-.455-1.017-1.017-1.017v.571zM5.4 11.656a5.412 5.412 0 0 1 4.167-2.314l-.029-.571a5.983 5.983 0 0 0-4.607 2.558l.469.326zm29.013 14.886a10.157 10.157 0 0 0 1.761-3.992l-.56-.113a9.594 9.594 0 0 1-1.662 3.767l.461.338zm-4.603 2.553a5.983 5.983 0 0 0 4.607-2.558l-.469-.326a5.412 5.412 0 0 1-4.167 2.314l.029.571zm-1.031-1.017c0 .561.455 1.017 1.017 1.017v-.571a.445.445 0 0 1-.445-.445h-.571zm1.017-1.016c-.561 0-1.017.455-1.017 1.017h.571c0-.246.199-.445.445-.445v-.571zm2.977-1.716a3.995 3.995 0 0 1-2.998 1.716l.042.57a4.572 4.572 0 0 0 3.427-1.962l-.47-.325zm1.412-3.205a8.177 8.177 0 0 1-1.407 3.199l.462.337a8.74 8.74 0 0 0 1.506-3.423l-.56-.113zm.993-.814a1.016 1.016 0 0 0-.993.813l.56.114a.444.444 0 0 1 .435-.356l-.001-.571zm.209.021a1.031 1.031 0 0 0-.207-.021l-.001.571a.43.43 0 0 1 .094.01l.115-.56zm.787 1.204a1.017 1.017 0 0 0-.786-1.204l-.117.559a.445.445 0 0 1 .344.527l.559.117z"/></symbol><symbol id="icon-exotic" viewBox="0 0 35 32"><path fill="#ffc59e" style="fill:var(--color1,#ffc59e)" d="M34.51 20.958c0-.57-.462-1.032-1.032-1.032h-.322l.142-.142a1.031 1.031 0 1 0-1.459-1.459l-1.601 1.601h-.048a4.157 4.157 0 0 1-3.171-1.465l-1.41-1.655c.97-1.32 1.741-2.878 2.306-4.661 1.621-.574 2.77-1.517 3.418-2.809 1.148-2.288 1.554-7.567-1.251-8.985-1.252-.633-2.872-.407-4.562.636-1.337.825-2.564 2.077-3.202 3.269-1.219 2.275-.741 4.282-.433 5.129-.338 1.07-.781 1.993-1.325 2.772l-1.265-1.078a4.16 4.16 0 0 1-1.465-3.171V7.86l1.601-1.601A1.031 1.031 0 1 0 17.972 4.8l-.142.142V4.62a1.032 1.032 0 1 0-2.064 0v.322l-.142-.142a1.031 1.031 0 1 0-1.459 1.459l1.601 1.601v.048c0 1.828.798 3.557 2.19 4.743l1.197 1.019c-1.698 1.357-3.995 1.848-6.877 1.459a12.42 12.42 0 0 0-.719-.075l-1.602-1.881a6.22 6.22 0 0 0-4.743-2.19h-.048L3.563 9.382a1.031 1.031 0 1 0-1.459 1.459l.142.142h-.322a1.032 1.032 0 1 0 0 2.064h.322l-.142.142a1.031 1.031 0 1 0 1.46 1.459l1.601-1.601h.048c1.223 0 2.379.534 3.171 1.465l.541.635c-.667.098-1.321.253-1.952.464a10.848 10.848 0 0 0-4.516 2.908C.348 20.801-.424 23.646.224 26.748c.477 2.284 1.564 3.903 1.61 3.971a1.032 1.032 0 0 0 1.879-.464c.005-.047.565-4.74 3.454-7.395.368-.338 1.759-1.416 4.212-1.085a23.64 23.64 0 0 0 2.491.207l1.458 1.914a4.16 4.16 0 0 1 .757 3.41l-.01.046-1.905 1.224a1.032 1.032 0 0 0 1.116 1.736l.169-.108-.069.315a1.033 1.033 0 0 0 2.016.439l.069-.315.108.169a1.03 1.03 0 1 0 1.736-1.116l-1.224-1.905.01-.047a6.22 6.22 0 0 0-1.132-5.1l-.573-.752c2.66-.279 4.945-1.154 6.827-2.619.356-.277.695-.574 1.019-.891l1.206 1.416a6.22 6.22 0 0 0 4.743 2.19h.048l1.601 1.601a1.028 1.028 0 0 0 1.459 0 1.031 1.031 0 0 0 0-1.459l-.142-.142h.322c.569 0 1.032-.462 1.032-1.032zm-20.013-1.027c-.9 0-1.849-.067-2.844-.201-3.251-.438-5.198.98-5.884 1.611-1.766 1.623-2.794 3.801-3.38 5.57-.527-1.929-.618-4.61 1.582-6.99 1.701-1.84 4.071-2.839 6.65-2.839.453 0 .913.031 1.376.093 3.998.54 7.205-.436 9.399-2.786.03-.028.058-.057.085-.088l.023-.03c1.089-1.208 1.92-2.765 2.464-4.653a1.03 1.03 0 0 0-.078-.764c-.008-.016-.809-1.655.244-3.621.971-1.811 3.728-3.688 5.014-3.037.544.275.92 1.252.982 2.549.062 1.304-.197 2.778-.644 3.668-.651 1.297-2.068 1.735-2.534 1.879-.248.076-.708.219-.866.767-1.698 5.899-5.59 8.874-11.591 8.874z"/></symbol><symbol id="icon-grooming" viewBox="0 0 36 32"><path fill="#ffc59e" style="fill:var(--color1,#ffc59e)" d="M18.073 21.263c-.255 0-.505.019-.751.054l-2.301-5.086 4.013-9.009a5.313 5.313 0 0 0-2.389-7.11 1.063 1.063 0 0 0-1.444.513l-3.62 8.003L7.96.624A1.067 1.067 0 0 0 6.516.111a5.312 5.312 0 0 0-2.388 7.11l4.018 9.002-2.291 5.066a5.322 5.322 0 0 0-5.856 5.289c0 2.931 2.385 5.316 5.316 5.316a5.322 5.322 0 0 0 5.296-5.763l.978-2.195 1.169 2.619-.001.023c0 2.931 2.385 5.316 5.316 5.316s5.316-2.385 5.316-5.316a5.322 5.322 0 0 0-5.316-5.316zM6.062 6.336l-.02-.042a3.19 3.19 0 0 1 .52-3.604l3.854 8.519-1.097 2.425-3.257-7.297zm-.746 23.432c-1.759 0-3.189-1.431-3.189-3.189s1.431-3.189 3.189-3.189c1.759 0 3.189 1.431 3.189 3.189s-1.431 3.189-3.189 3.189zm4.211-6.428a5.356 5.356 0 0 0-1.629-1.406l8.704-19.245a3.19 3.19 0 0 1 .5 3.647L9.527 23.34zm4.204.178-.979-2.193 1.112-2.495 1.45 3.206a5.36 5.36 0 0 0-1.584 1.482zm4.342 6.25c-1.759 0-3.189-1.431-3.189-3.189s1.431-3.189 3.189-3.189c1.759 0 3.189 1.431 3.189 3.189s-1.431 3.189-3.189 3.189zM33.099 0H26.72a1.063 1.063 0 0 0 0 2.126h3.189v2.126H26.72a1.063 1.063 0 0 0 0 2.126h3.189v2.126H26.72a1.063 1.063 0 0 0 0 2.126h3.189v2.126H26.72a1.063 1.063 0 0 0 0 2.126h3.189v2.126H26.72a1.063 1.063 0 0 0 0 2.126h3.189v2.126H26.72a1.063 1.063 0 0 0 0 2.126h3.189v2.126H26.72a1.063 1.063 0 0 0 0 2.126h3.189v2.126H26.72a1.063 1.063 0 0 0 0 2.126h6.379a3.193 3.193 0 0 0 3.189-3.189V3.186a3.193 3.193 0 0 0-3.189-3.189zm1.063 28.705c0 .586-.477 1.063-1.063 1.063h-1.063V2.126h1.063c.586 0 1.063.477 1.063 1.063v25.515z"/></symbol><symbol id="icon-hirurgy" viewBox="0 0 29 32"><path fill="#ffc59e" style="fill:var(--color1,#ffc59e)" d="M27.941.518A.939.939 0 0 0 26.44.274C16.071 10.62 19.231 7.464 15.485 11.21L1.857 22.741a5.254 5.254 0 0 0-.321 7.721 5.252 5.252 0 0 0 7.721-.321L19.699 17.8c.761-.9.858-2.172.318-3.168l1.407-1.407.663.663a.938.938 0 0 0 1.324.002l2.814-2.795A9.153 9.153 0 0 0 27.942.517zM7.826 28.93a3.373 3.373 0 0 1-4.964.207 3.372 3.372 0 0 1 .207-4.964l2.945-2.492 4.304 4.304-2.492 2.945zm3.707-4.381L7.45 20.466l1.436-1.215 3.862 3.862-1.215 1.436zm2.431-2.872-3.641-3.641 1.436-1.215 3.42 3.421-1.215 1.436zm4.304-5.087-1.874 2.214-3.2-3.2 2.873-2.431 2.148 2.148a.943.943 0 0 1 .053 1.268zm.504-3.363-1.326-1.326 1.326-1.326 1.326 1.326-1.326 1.326zm6.129-3.458-2.149 2.134-2.653-2.653 6.654-6.639a7.277 7.277 0 0 1-1.852 7.158z"/></symbol><symbol id="icon-laboratory" viewBox="0 0 32 32"><path fill="#ffc59e" style="fill:var(--color1,#ffc59e)" d="M29.188 13.125h-.937V5.464a2.818 2.818 0 0 0 1.875-2.652 2.816 2.816 0 0 0-2.813-2.813h-7.5A2.816 2.816 0 0 0 17 2.812c0 1.222.784 2.265 1.875 2.652v7.661h-5.75V5.464A2.818 2.818 0 0 0 15 2.812a2.816 2.816 0 0 0-2.813-2.813h-7.5a2.816 2.816 0 0 0-2.813 2.813c0 1.222.784 2.265 1.875 2.652v7.661h-.938a2.816 2.816 0 0 0-2.813 2.813v13.25a2.816 2.816 0 0 0 2.813 2.813h26.375a2.816 2.816 0 0 0 2.813-2.813v-13.25a2.816 2.816 0 0 0-2.813-2.813zm-9.375-11.25h7.5c.517 0 .938.421.938.938s-.421.938-.938.938a.937.937 0 0 0-.937.938v4.688h-2.813a.938.938 0 1 0 0 1.875h2.813v1.875h-5.625V4.689c0-.518-.42-.938-.937-.938s-.938-.421-.938-.938.421-.938.938-.938zm3.75 16.875h2.813v4.813c0 1.551-1.262 2.813-2.813 2.813s-2.813-1.262-2.813-2.813V15h5.625v1.875h-2.813a.938.938 0 0 0 0 1.875zM4.688 1.875h7.5c.517 0 .938.421.938.938s-.421.938-.938.938a.937.937 0 0 0-.937.938v4.688H8.438a.938.938 0 1 0 0 1.875h2.813v1.875H5.626V4.689c0-.518-.42-.938-.937-.938s-.938-.421-.938-.938.421-.938.938-.938zm3.75 16.875h2.813v4.813c0 1.551-1.262 2.813-2.813 2.813s-2.813-1.262-2.813-2.813V15h5.625v1.875H8.437a.938.938 0 0 0 0 1.875zm21.687 10.438a.94.94 0 0 1-.938.938H2.812a.94.94 0 0 1-.938-.938v-13.25A.94.94 0 0 1 2.812 15h.938v8.563c0 2.585 2.103 4.688 4.688 4.688s4.688-2.103 4.688-4.688V15h5.75v8.563c0 2.585 2.103 4.688 4.688 4.688s4.688-2.103 4.688-4.688V15h.937a.94.94 0 0 1 .938.938v13.25z"/></symbol><symbol id="icon-nevrology" viewBox="0 0 32 32"><path fill="#ffc59e" style="fill:var(--color1,#ffc59e)" d="M24.434 10.168a8.436 8.436 0 0 0-.119-1.28c2.229 1.532 4.716.725 5.573-1.485 1.048-2.702-1.409-5.581-4.389-6.804-2.628-1.079-5.529-.796-7.063 1.638a8.423 8.423 0 0 0-4.876 0C12.027-.197 9.126-.48 6.498.599c-2.98 1.223-5.436 4.103-4.389 6.804.855 2.205 3.339 3.02 5.573 1.485a8.424 8.424 0 0 0-.119 1.28c-2.804.577-7.564 1.974-7.564 4.834 0 .617.231 1.177.608 1.669l.001.002 6.953 9.083v3.432c0 .34.184.653.48.818.146.081 3.62 1.994 7.957 1.994s7.811-1.912 7.957-1.994a.937.937 0 0 0 .48-.818v-3.432l6.953-9.084c.375-.482.609-1.057.609-1.671 0-2.859-4.757-4.255-7.564-4.834zm.353-7.835c2.103.863 3.951 2.85 3.353 4.392-.517 1.334-2.036 1.515-3.412.055l-.014-.014c-.859-.911-1.917-2.034-2.876-2.537a8.504 8.504 0 0 0-1.646-1.235c1.367-1.785 3.811-.983 4.596-.661zm-8.788 1.419a6.57 6.57 0 0 1 6.562 6.562v3.75c0 1.66-.611 3.223-1.727 4.437-1.209.13-2.512.215-3.897.241v-2.415l1.6-1.6a.938.938 0 0 0-.663-1.601h-3.75a.937.937 0 0 0-.663 1.601l1.6 1.6v2.415a44.644 44.644 0 0 1-3.897-.241 6.511 6.511 0 0 1-1.727-4.437v-3.75a6.57 6.57 0 0 1 6.562-6.562zM7.283 6.767l-.013.014c-1.376 1.46-2.895 1.279-3.412-.055-.606-1.562 1.288-3.545 3.353-4.392.785-.322 3.229-1.125 4.596.661a8.473 8.473 0 0 0-1.646 1.235c-.96.503-2.018 1.626-2.877 2.537zm-5.335 8.527a.676.676 0 0 1-.073-.292c0-.681 1.567-2.013 5.687-2.917v1.98c0 1.448.362 2.838 1.043 4.07-1.707-.31-5.923-1.299-6.657-2.841zm2.914 3.85c1.892.615 4.244 1.064 6.873 1.298l.905 5.522a16.73 16.73 0 0 1-3.522-1.26l-4.256-5.56zm17.699 9.465c-1.027.48-3.587 1.516-6.562 1.516-2.96 0-5.531-1.038-6.562-1.518v-1.702c1.43.582 3.824 1.345 6.562 1.345s5.132-.762 6.562-1.345v1.703zm.319-3.905c-.692.351-3.522 1.671-6.881 1.671-.48 0-.949-.027-1.404-.075l-.939-5.729c.764.036 1.547.054 2.343.054 4.342 0 8.268-.549 11.137-1.482l-4.256 5.56zm7.022-9.175c-.747.971-3.072 1.981-6.509 2.605a8.385 8.385 0 0 0 1.043-4.07v-1.98c4.12.905 5.687 2.237 5.687 2.917 0 .126-.044.299-.221.528z"/></symbol><symbol id="icon-oftomotology" viewBox="0 0 32 32"><path fill="#ffc59e" style="fill:var(--color1,#ffc59e)" d="M32 6.625V.937a.938.938 0 0 0-.938-.938c-3.48 0-7.04 1.005-10.101 2.842a.867.867 0 0 0-.07-.03 14.024 14.024 0 0 0-4.892-.875 14.04 14.04 0 0 0-4.97.901C7.971 1.004 4.407-.001.937-.001a.938.938 0 0 0-.938.938v5.688c0 1.976.962 3.898 2.576 5.164A14.11 14.11 0 0 0 1.936 16c0 3.642 1.422 7.193 3.912 9.794a5.593 5.593 0 0 0 5.463 4.331c.299 0 .595-.024.885-.07C13.069 31.27 14.468 32 15.998 32s2.93-.73 3.802-1.945c.29.045.586.07.885.07 2.561 0 4.828-1.711 5.462-4.33 2.491-2.601 3.913-6.152 3.913-9.796 0-1.029-.111-2.045-.329-3.037 1.791-1.407 2.267-4.753 2.267-6.338zm-30.125 0V1.902c2.419.138 4.859.804 7.073 1.926a14.188 14.188 0 0 0-5.643 6.109c-.904-.892-1.429-2.091-1.429-3.312zM16 30.125c-.72 0-1.391-.27-1.901-.738A5.607 5.607 0 0 0 16 27.605a5.608 5.608 0 0 0 1.901 1.782 2.798 2.798 0 0 1-1.901.738zm-.878-8.829a.94.94 0 0 1 1.756 0l-.878.878-.878-.878zm9.205 4.061a3.722 3.722 0 0 1-3.64 2.893c-2.298 0-4.064-2.035-3.704-4.408l1.555-1.555a.937.937 0 0 0 .275-.663c0-1.551-1.262-2.812-2.813-2.812s-2.813 1.262-2.813 2.812c0 .249.099.487.275.663l1.555 1.555c.361 2.379-1.413 4.407-3.704 4.407-2.099 0-3.75-1.696-3.75-3.813 0-1.002.39-1.943 1.098-2.652a.938.938 0 0 0-1.326-1.326 5.587 5.587 0 0 0-1.429 2.421 12.415 12.415 0 0 1-2.094-6.881c0-3.909 1.85-7.393 4.72-9.625L24.393 25.01a.958.958 0 0 0-.067.345zm3.669-7.2-3.924-4.638a.937.937 0 1 0-1.431 1.211l4.754 5.618a12.318 12.318 0 0 1-1.782 3.202L10.11 5.334a12.092 12.092 0 0 1 3.494-1.284l9.037 10.681a.937.937 0 1 0 1.431-1.211L15.86 3.815a12.133 12.133 0 0 1 4.191.687l7.448 7.448a12.236 12.236 0 0 1 .497 6.208zm1.084-7.254a.972.972 0 0 0-.108-.132l-6.587-6.587c2.386-1.338 5.072-2.131 7.74-2.282v4.723c0 1.427-.389 3.241-1.045 4.278z"/><path fill="#ffc59e" style="fill:var(--color1,#ffc59e)" d="M10.375 13.188c-1.551 0-2.813 1.262-2.813 2.813s1.262 2.813 2.813 2.813c1.551 0 2.812-1.262 2.812-2.813s-1.262-2.813-2.812-2.813zm0 3.75c-.517 0-.938-.421-.938-.938s.421-.938.938-.938a.938.938 0 0 1 0 1.876z"/></symbol><symbol id="icon-oncology" viewBox="0 0 32 32"><path fill="#ffc59e" style="fill:var(--color1,#ffc59e)" d="M31.726.275a.938.938 0 0 0-1.326 0L26.015 4.66a2.818 2.818 0 0 0-3.201.549l-2.103 2.103a2.818 2.818 0 0 0-3.201.549L8.381 16.99a9.187 9.187 0 0 0-3.464-.672h-.003c-1.551 0-2.812 1.262-2.812 2.812s1.262 2.812 2.812 2.812c.345 0 .688.052 1.016.149l-3.668 3.668-.663-.663a.938.938 0 0 0-1.326 1.326l5.303 5.303a.938.938 0 0 0 1.326-1.326l-.663-.663 3.668-3.668c.097.328.149.671.149 1.016 0 .751.292 1.458.824 1.989s1.237.824 1.989.824a2.815 2.815 0 0 0 2.812-2.812c0-1.208-.231-2.38-.672-3.467l9.129-9.129a2.812 2.812 0 0 0 .55-3.202l2.102-2.102a2.812 2.812 0 0 0 .55-3.202l4.384-4.384a.938.938 0 0 0 0-1.326zM4.915 28.411l-1.326-1.326 3.977-3.977 1.326 1.326-3.978 3.977zm7.955-.389a.936.936 0 0 1-.937-.937 5.515 5.515 0 0 0-1.6-3.864l-1.554-1.554a5.514 5.514 0 0 0-3.863-1.6.938.938 0 0 1 .001-1.874h.002c1.959 0 3.801.763 5.187 2.149l1.554 1.554a7.288 7.288 0 0 1 2.149 5.189.938.938 0 0 1-.937.937zm3.978-8.892-.663-.663a.938.938 0 0 0-1.326 1.326l.663.663-1.438 1.438a9.323 9.323 0 0 0-1.1-1.324l-1.554-1.554a9.38 9.38 0 0 0-1.324-1.1l4.09-4.09 3.977 3.977-1.326 1.326zm5.966-5.966-.663.663-.663-.663a.938.938 0 0 0-1.326 1.326l.663.663-1.326 1.326-3.977-3.977 3.315-3.315a.938.938 0 0 1 1.326 0l2.652 2.652a.938.938 0 0 1 0 1.326zm2.651-5.303L23.476 9.85 22.15 8.524l1.989-1.989a.939.939 0 0 1 1.326 1.326z"/></symbol><symbol id="icon-ortopedy" viewBox="0 0 32 32"><path fill="#ffc59e" style="fill:var(--color1,#ffc59e)" d="m30.22 5.624-.002-.002-.001-.001-.003-.003-.001-.001-.001-.001-.002-.002h-.001a5.594 5.594 0 0 0-2.528-1.451 5.525 5.525 0 0 0-1.44-2.518 5.624 5.624 0 0 0-8.561 7.236l-3.15 3.15a.935.935 0 0 0-.256.847l.663 3.314a.936.936 0 0 0 .735.735l3.314.663a.94.94 0 0 0 .847-.256l3.15-3.15c2.177 1.554 5.258 1.376 7.236-.608a5.63 5.63 0 0 0 .003-7.95zm-1.329 6.625-.026.026-.001.001c-1.625 1.592-4.08 1.245-5.246.001l-.028-.028a.931.931 0 0 0-.674-.274h-.005a.933.933 0 0 0-.635.263l-3.415 3.415-2.209-.442-.442-2.209 3.403-3.403a.937.937 0 0 0 0-1.326 3.747 3.747 0 0 1 0-5.302 3.753 3.753 0 0 1 5.302 0c.302.302.546.653.725 1.038a5.592 5.592 0 0 0-3.376 1.613.937.937 0 1 0 1.325 1.325c1.536-1.536 3.935-1.363 5.299-.004l.001.001.001.001.002.002a3.753 3.753 0 0 1 0 5.302zM11.354 10.041l-1.325-1.325a.937.937 0 1 0-1.325 1.325l1.325 1.326a.937.937 0 1 0 1.325-1.326zM10.691 12.382H8.04a.937.937 0 1 0 0 1.874h2.651a.937.937 0 1 0 0-1.874zM13.307 7.116a.937.937 0 0 0-.937.937v2.651a.937.937 0 1 0 1.874 0V8.053a.937.937 0 0 0-.937-.937zM23.284 21.971l-1.326-1.326a.937.937 0 1 0-1.325 1.326l1.325 1.325a.937.937 0 1 0 1.325-1.325zM18.618 20.371a.937.937 0 0 0-.937.937v2.651a.937.937 0 1 0 1.874 0v-2.651a.937.937 0 0 0-.937-.937zM23.947 17.693h-2.651a.937.937 0 1 0 0 1.874h2.651a.937.937 0 1 0 0-1.874z"/><path fill="#ffc59e" style="fill:var(--color1,#ffc59e)" d="M17.554 19.05a.938.938 0 0 0-.714-.649l-2.701-.54-.54-2.701a.938.938 0 0 0-1.58-.481l-3.137 3.118a5.631 5.631 0 0 0-7.237.606 5.63 5.63 0 0 0 0 7.953 5.517 5.517 0 0 0 2.52 1.44c1.105 4.195 6.356 5.59 9.41 2.536a5.62 5.62 0 0 0 .61-7.233l3.133-3.114a.936.936 0 0 0 .237-.935zm-5.303 3.328-.001.001-.001.001a.939.939 0 0 0 0 1.325 3.748 3.748 0 0 1 0 5.302c-2.178 2.178-5.918.95-6.347-2.132-.179-1.287.27-2.394 1.045-3.17a.937.937 0 1 0-1.325-1.325 5.592 5.592 0 0 0-1.611 3.376 3.639 3.639 0 0 1-1.04-.725c-1.462-1.462-1.462-3.84 0-5.302s3.84-1.462 5.302 0a.937.937 0 0 0 1.323.002l2.507-2.492.321 1.603a.936.936 0 0 0 .735.735l1.59.318-2.498 2.483z"/></symbol><symbol id="icon-reproductology" viewBox="0 0 46 32"><path fill="#ffc59e" style="fill:var(--color1,#ffc59e)" d="M42.145 0H36.66c-1.515 0-2.824.9-3.422 2.193-.973-.226-2.02-.341-3.123-.341s-2.15.115-3.123.341A3.772 3.772 0 0 0 23.571 0h-5.485a3.772 3.772 0 0 0-3.768 3.768c0 .764.231 1.549.633 2.152l2.382 3.572a3.757 3.757 0 0 0 1.553 1.314c-1.166 4.671-.803 12.552-.803 12.398a6.487 6.487 0 0 0 8.171 6.256c.856 1.305 2.319 2.137 3.863 2.137s3.007-.832 3.863-2.137a6.487 6.487 0 0 0 8.171-6.256c0-4.716.225-8.631-.794-12.402a3.755 3.755 0 0 0 1.544-1.309l2.382-3.572a3.97 3.97 0 0 0 .633-2.152A3.772 3.772 0 0 0 42.148.001zM18.872 8.465 16.49 4.893a2.14 2.14 0 0 1-.322-1.125c0-1.057.86-1.917 1.916-1.917h5.485c1.057 0 1.916.86 1.916 1.917 0 .396-.123.827-.322 1.125l-2.382 3.572a1.913 1.913 0 0 1-1.595.853h-.66c-.661 0-1.311-.335-1.656-.853zm11.243 21.28c-.817 0-1.601-.399-2.128-1.044a6.529 6.529 0 0 0 2.128-2.163 6.538 6.538 0 0 0 2.128 2.163c-.527.645-1.311 1.044-2.128 1.044zm-.867-8.718a.927.927 0 0 1 1.734 0l-.867.867-.867-.867zm11.049 2.176a4.634 4.634 0 0 1-4.629 4.628 4.635 4.635 0 0 1-4.614-4.259l1.566-1.566a.925.925 0 0 0 .271-.655c0-1.531-1.246-2.777-2.777-2.777s-2.777 1.246-2.777 2.777c0 .245.098.481.271.654l1.566 1.566a4.635 4.635 0 0 1-4.614 4.259 4.633 4.633 0 0 1-4.628-4.628c0-.237-.345-7.665.77-12.034h.486a3.758 3.758 0 0 0 3.135-1.678l2.382-3.572a3.938 3.938 0 0 0 .624-1.904c.858-.207 1.791-.313 2.785-.313s1.928.105 2.785.313c.044.684.265 1.366.624 1.904l2.382 3.572c.165.247.356.471.568.669a4.598 4.598 0 0 0-2.657-.842c-2.552 0-4.628 2.076-4.628 4.628s2.076 4.628 4.628 4.628a4.633 4.633 0 0 0 4.628-4.628 4.616 4.616 0 0 0-1.52-3.426 3.764 3.764 0 0 0 2.115.649h.495c.982 3.522.761 7.208.761 12.034zm-3.702-9.256c0 1.531-1.246 2.777-2.777 2.777s-2.777-1.246-2.777-2.777 1.246-2.777 2.777-2.777a2.78 2.78 0 0 1 2.777 2.777zm7.145-9.054-2.382 3.572c-.346.518-.996.853-1.656.853h-.661a1.912 1.912 0 0 1-1.594-.853l-2.382-3.572a2.14 2.14 0 0 1-.322-1.125 1.92 1.92 0 0 1 1.917-1.917h5.486c1.056 0 1.916.86 1.916 1.917 0 .396-.123.827-.322 1.125z"/><path fill="#ffc59e" style="fill:var(--color1,#ffc59e)" d="M26.412 14.872a.926.926 0 1 0 0-1.852.926.926 0 0 0 0 1.852zM33.818 14.872a.926.926 0 1 0 0-1.852.926.926 0 0 0 0 1.852zM14.983 14.979h-2.885c-.797 0-1.485.473-1.799 1.153-.512-.119-1.062-.179-1.643-.179s-1.131.06-1.643.179a1.983 1.983 0 0 0-1.799-1.153H2.329a1.984 1.984 0 0 0-1.982 1.982c0 .402.121.814.333 1.132l1.252 1.879c.201.301.487.538.817.691-.613 2.456-.423 6.602-.423 6.52a3.412 3.412 0 0 0 4.297 3.29c.45.686 1.22 1.124 2.032 1.124s1.582-.438 2.032-1.124a3.412 3.412 0 0 0 4.297-3.29c0-2.48.118-4.539-.418-6.523a1.97 1.97 0 0 0 .812-.689l1.253-1.879c.212-.317.333-.73.333-1.132a1.984 1.984 0 0 0-1.982-1.982zm-12.24 4.452L1.49 17.552a1.125 1.125 0 0 1-.169-.591c0-.556.452-1.008 1.008-1.008h2.885c.556 0 1.008.452 1.008 1.008 0 .208-.065.435-.169.592L4.8 19.432a1.006 1.006 0 0 1-.839.449h-.347c-.347 0-.689-.176-.871-.449zm5.913 11.191c-.43 0-.842-.21-1.119-.549a3.436 3.436 0 0 0 1.119-1.137c.278.461.663.852 1.119 1.137a1.463 1.463 0 0 1-1.119.549zM8.2 26.038a.488.488 0 0 1 .912 0l-.456.456-.456-.456zm5.811 1.144a2.437 2.437 0 0 1-2.434 2.434 2.437 2.437 0 0 1-2.426-2.24l.823-.823a.488.488 0 0 0 .143-.344c0-.805-.655-1.46-1.46-1.46s-1.46.655-1.46 1.46c0 .129.051.253.143.344l.823.823a2.437 2.437 0 0 1-2.426 2.24 2.437 2.437 0 0 1-2.434-2.434c0-.125-.182-4.031.405-6.329h.256c.664 0 1.28-.33 1.649-.882l1.253-1.879c.189-.283.305-.642.328-1.002.451-.109.942-.164 1.465-.164s1.014.055 1.465.164c.023.36.14.718.328 1.002l1.253 1.879c.087.13.187.248.299.352a2.419 2.419 0 0 0-1.398-.443c-1.342 0-2.434 1.092-2.434 2.434s1.092 2.434 2.434 2.434a2.432 2.432 0 0 0 1.635-4.236 1.98 1.98 0 0 0 1.112.341h.26c.516 1.852.4 3.791.4 6.329zm-1.947-4.868c0 .805-.655 1.46-1.46 1.46s-1.46-.655-1.46-1.46.655-1.46 1.46-1.46c.805 0 1.46.655 1.46 1.46zm3.758-4.762-1.253 1.879a1.065 1.065 0 0 1-.871.449h-.347c-.338 0-.651-.168-.839-.449l-1.253-1.879a1.126 1.126 0 0 1-.169-.592c0-.556.452-1.008 1.008-1.008h2.885c.556 0 1.008.452 1.008 1.008 0 .208-.065.435-.169.592z"/><path fill="#ffc59e" style="fill:var(--color1,#ffc59e)" d="M6.709 22.801a.487.487 0 1 0 0-.974.487.487 0 0 0 0 .974zM10.604 22.801a.487.487 0 1 0 0-.974.487.487 0 0 0 0 .974z"/></symbol><symbol id="icon-stomotology" viewBox="0 0 37 32"><path fill="#ffc59e" style="fill:var(--color1,#ffc59e)" d="M26.809 2.133h-1.672A4.342 4.342 0 0 0 21.401 0h-6.392a4.345 4.345 0 0 0-3.736 2.133H9.601c-5.293 0-9.6 4.306-9.6 9.6v8.533c0 .855.333 1.658.937 2.263.373.373.822.643 1.313.794a17.02 17.02 0 0 0 3.297 8.25c.525.7 1.624.504 1.875-.333l1.992-6.639a3.19 3.19 0 0 0 4.472.165 3.285 3.285 0 0 0 2.186.834c.828 0 1.583-.316 2.152-.834a3.285 3.285 0 0 0 2.186.834c.819 0 1.567-.31 2.133-.817a3.193 3.193 0 0 0 4.453-.181l1.991 6.638a1.067 1.067 0 0 0 1.875.333 17.029 17.029 0 0 0 3.297-8.25c.49-.152.939-.421 1.313-.794a3.175 3.175 0 0 0 .937-2.262v-8.533c0-5.293-4.306-9.6-9.6-9.6zm-11.801 0H21.4a2.21 2.21 0 0 1 1.837 3.433l-2.744 4.117c-.398.597-1.147.983-1.909.983h-.761c-.745 0-1.504-.377-1.909-.983L13.17 5.566a2.21 2.21 0 0 1 1.837-3.433zm-12.875 9.6c0-4.117 3.35-7.467 7.467-7.467h1.069l-.002.075c0 .86.252 1.693.729 2.408l2.744 4.117c.237.356.53.671.862.939-.041 1.703-1.521 3.128-3.269 3.128H8.35c-2.269 0-4.427.716-6.217 2.04v-5.24zm3.912 16.67a14.9 14.9 0 0 1-1.656-5.165 3.197 3.197 0 0 0 1.073-.709 4.114 4.114 0 0 1 2.702-1.191l-2.12 7.065zM12.8 22.4c0 .588-.479 1.067-1.067 1.067s-1.067-.479-1.067-1.067v-1.067h1.067c.358 0 .714-.02 1.067-.06v1.126zm4.338 0c0 .588-.479 1.067-1.067 1.067-.606 0-1.138-.498-1.138-1.067v-1.616a9.643 9.643 0 0 0 2.204-1.112v2.727zm4.338 0c0 .588-.479 1.067-1.067 1.067-.606 0-1.138-.498-1.138-1.067v-2.727a9.725 9.725 0 0 0 2.204 1.112v1.616zm4.266 0c0 .588-.479 1.067-1.067 1.067s-1.067-.479-1.067-1.067v-1.126c.352.039.708.06 1.067.06h1.067v1.067zm4.621 6.003-2.119-7.065a4.114 4.114 0 0 1 2.702 1.191c.312.312.676.55 1.073.709a14.9 14.9 0 0 1-1.656 5.165zm3.6-7.382a1.066 1.066 0 0 1-1.508 0 6.26 6.26 0 0 0-4.396-1.821h-3.383a7.532 7.532 0 0 1-5.668-2.584 1.066 1.066 0 0 0-1.606 0 7.53 7.53 0 0 1-5.668 2.584H8.35a6.26 6.26 0 0 0-4.396 1.821 1.066 1.066 0 1 1-1.508-1.508 8.292 8.292 0 0 1 5.904-2.446h3.383a5.405 5.405 0 0 0 3.797-1.555 5.284 5.284 0 0 0 1.511-2.782c.257.046.518.07.782.07h.761c.287 0 .572-.028.85-.082a5.34 5.34 0 0 0 5.241 4.349h3.383c2.231 0 4.328.869 5.904 2.446a1.067 1.067 0 0 1 0 1.508zm.313-4.048a10.404 10.404 0 0 0-6.217-2.04h-3.383a3.204 3.204 0 0 1-3.2-3.185c.304-.255.572-.551.793-.882l2.744-4.117a4.328 4.328 0 0 0 .729-2.408l-.002-.075h1.069c4.117 0 7.467 3.35 7.467 7.467v5.24z"/></symbol><symbol id="icon-terapy" viewBox="0 0 32 32"><path fill="#ffc59e" style="fill:var(--color1,#ffc59e)" d="M27.313 9.438a4.693 4.693 0 0 0-4.688 4.688 4.695 4.695 0 0 0 3.75 4.593v9.532c0 1.034-.841 1.875-1.875 1.875s-1.875-.841-1.875-1.875v-3.75c0-2.068-1.682-3.75-3.75-3.75s-3.75 1.682-3.75 3.75v3.75a1.877 1.877 0 0 1-1.875 1.875c-1.05 0-1.938-.859-1.938-1.875v-7.612a4.357 4.357 0 0 0 2.745-2.053l6.178-10.874a3.91 3.91 0 0 0 .514-1.935c0-2.1-1.669-3.817-3.75-3.897V.939a.938.938 0 1 0-1.875 0v3.75a.937.937 0 0 0 1.875 0v-.931a2.027 2.027 0 0 1 1.607 3.026l-3.639 6.405H5.781l-3.64-6.407a2.026 2.026 0 0 1 1.608-3.024v.931a.937.937 0 0 0 1.875 0V.939a.938.938 0 1 0-1.875 0v.941a3.904 3.904 0 0 0-3.75 3.897c0 .678.178 1.347.513 1.933l6.181 10.878a4.359 4.359 0 0 0 2.744 2.051v7.612c0 2.085 1.75 3.75 3.813 3.75a3.754 3.754 0 0 0 3.75-3.75v-3.75c0-1.034.841-1.875 1.875-1.875s1.875.841 1.875 1.875v3.75c0 2.068 1.682 3.75 3.75 3.75s3.75-1.682 3.75-3.75v-9.532A4.695 4.695 0 0 0 32 14.126a4.693 4.693 0 0 0-4.688-4.688zm-16.938 9.437c-.812 0-1.637-.489-2.053-1.216l-1.475-2.596h7.056l-1.474 2.594c-.416.729-1.242 1.218-2.054 1.218zm16.938-1.937c-1.551 0-2.812-1.262-2.812-2.813s1.262-2.813 2.812-2.813c1.551 0 2.813 1.262 2.813 2.813s-1.262 2.813-2.813 2.813z"/><path fill="#ffc59e" style="fill:var(--color1,#ffc59e)" d="M27.313 15.063a.938.938 0 1 0 0-1.876.938.938 0 0 0 0 1.876z"/></symbol><symbol id="icon-visual" viewBox="0 0 28 32"><path fill="#ffc59e" style="fill:var(--color1,#ffc59e)" d="M20.989 17.035a8.494 8.494 0 0 0 1.511-4.848V8.435c-.001-4.652-3.786-8.436-8.438-8.436S5.624 3.784 5.624 8.437v3.75c0 1.8.559 3.472 1.511 4.847-4.08.624-7.136 4.18-7.136 8.34v5.687c0 .518.42.938.938.938h26.25c.518 0 .938-.42.938-.938v-5.687c0-4.146-3.042-7.714-7.136-8.34zm-6.926-15.16c3.3 0 6.039 2.449 6.495 5.625h-1.902c-.436-2.137-2.329-3.75-4.593-3.75S9.905 5.363 9.47 7.5H7.568c.456-3.176 3.195-5.625 6.495-5.625zm2.812 6.563c0 1.551-1.262 2.813-2.813 2.813S11.25 9.989 11.25 8.438c0-1.551 1.262-2.813 2.812-2.813s2.813 1.262 2.813 2.813zM7.5 9.375h1.969c.435 2.137 2.329 3.75 4.593 3.75s4.158-1.613 4.593-3.75h1.969v2.812c0 3.653-2.944 6.625-6.563 6.625a6.496 6.496 0 0 1-4.315-1.638 6.638 6.638 0 0 1-2.248-4.988V9.374zm-.937 15.063a.938.938 0 0 1 0 1.875c-.517 0-.938-.421-.938-.937s.421-.938.938-.938zm19.687 5.687H1.875v-4.75a6.586 6.586 0 0 1 3.75-5.934v3.283a2.817 2.817 0 0 0-1.875 2.651c0 1.551 1.262 2.812 2.813 2.812s2.813-1.262 2.813-2.812a2.817 2.817 0 0 0-1.875-2.651v-3.846c.423-.06.857-.078 1.295-.055a8.36 8.36 0 0 0 5.267 1.865 8.344 8.344 0 0 0 4.688-1.436v1.53a4.695 4.695 0 0 0-3.75 4.593v.937a.938.938 0 0 0 0 1.875h1.875a.938.938 0 1 0 0-1.875v-.937c0-1.551 1.262-2.813 2.813-2.813s2.813 1.262 2.813 2.813v.937a.938.938 0 0 0 0 1.875h1.875a.937.937 0 1 0 0-1.875v-.937a4.695 4.695 0 0 0-3.75-4.593v-1.904c3.237.457 5.625 3.262 5.625 6.498v4.75z"/></symbol></defs></svg>