<svg aria-hidden="true" style="width:0;height:0;position:absolute;overflow:hidden" xmlns="http://www.w3.org/2000/svg"><defs><symbol id="icon-fb" viewBox="0 0 32 32"><path fill="#fff" style="fill:var(--color1,#fff)" d="M0 16C0 7.164 7.164 0 16 0s16 7.162 16 16c0 8.836-7.164 16-16 16S0 24.836 0 16zm17.514 0 2.622-.002.35-3.308H17.51l.004-1.656c0-.862.06-1.324 1.298-1.324h1.656V6.4H17.82c-3.178 0-3.91 1.642-3.91 4.342l.004 1.948-2.4.002V16h2.4v9.6h3.598l.002-9.6z"/></symbol><symbol id="icon-inst" viewBox="0 0 32 32"><path style="fill:var(--color1,#fff)" d="M16 0C7.165 0 0 7.165 0 16s7.165 16 16 16 16-7.165 16-16S24.835 0 16 0zm9.132 19.788c-.044.978-.2 1.646-.427 2.23a4.697 4.697 0 0 1-2.687 2.687c-.584.227-1.252.382-2.23.427-.98.045-1.293.055-3.788.055s-2.808-.011-3.788-.055c-.978-.045-1.646-.2-2.23-.427a4.5 4.5 0 0 1-1.627-1.06 4.513 4.513 0 0 1-1.06-1.627c-.227-.584-.383-1.252-.427-2.23-.045-.98-.056-1.293-.056-3.788s.011-2.808.055-3.788c.044-.978.2-1.646.427-2.23a4.513 4.513 0 0 1 1.06-1.627 4.5 4.5 0 0 1 1.627-1.06c.584-.227 1.252-.382 2.23-.427.98-.045 1.293-.055 3.788-.055s2.808.011 3.788.056c.978.044 1.646.2 2.23.426a4.513 4.513 0 0 1 1.627 1.06 4.513 4.513 0 0 1 1.06 1.627c.227.584.383 1.252.427 2.23.045.98.055 1.293.055 3.788s-.01 2.808-.055 3.788zm-2.016-9.152a2.858 2.858 0 0 0-.69-1.061 2.842 2.842 0 0 0-1.061-.69c-.325-.126-.814-.277-1.714-.318-.973-.044-1.265-.054-3.73-.054s-2.756.009-3.73.054c-.9.041-1.389.192-1.714.318a2.858 2.858 0 0 0-1.061.69c-.307.298-.542.66-.691 1.061-.126.325-.277.814-.318 1.714-.044.973-.054 1.265-.054 3.73s.01 2.756.054 3.73c.041.9.191 1.388.318 1.714.148.401.384.764.69 1.061.298.307.66.543 1.061.69.325.127.814.277 1.714.318.973.044 1.265.054 3.729.054s2.757-.009 3.73-.054c.9-.041 1.389-.191 1.714-.318a3.057 3.057 0 0 0 1.752-1.752c.126-.325.277-.814.318-1.714.044-.973.054-1.265.054-3.73s-.009-2.756-.054-3.73c-.041-.9-.191-1.389-.318-1.714zm-7.195 10.182a4.74 4.74 0 1 1 0-9.48 4.74 4.74 0 0 1 0 9.48zm3.819-9.666a1.108 1.108 0 1 0 2.216 0 1.108 1.108 0 0 0-2.216 0zM19.074 16a3.074 3.074 0 1 1-6.147 0 3.074 3.074 0 0 1 6.147 0z"/></symbol><symbol id="icon-twitter" viewBox="-2 -2 40 40"><path fill="#fff" style="fill:var(--color1,#fff)" d="M10.052 30c12.076 0 18.682-10.006 18.682-18.668 0-.28 0-.564-.012-.844a13.492 13.492 0 0 0 3.248-3.357l.03-.047c-1.1.499-2.376.863-3.713 1.029l-.065.007a6.636 6.636 0 0 0 2.881-3.587l.013-.047a12.828 12.828 0 0 1-4.091 1.572l-.083.014a6.572 6.572 0 0 0-11.183 6.033l-.009-.045A18.638 18.638 0 0 1 2.242 5.235l-.026-.033a6.498 6.498 0 0 0-.885 3.296 6.57 6.57 0 0 0 2.898 5.453l.023.015a6.62 6.62 0 0 1-3.006-.833l.034.017v.09a6.578 6.578 0 0 0 5.221 6.428l.043.008c-.51.146-1.096.23-1.701.23h-.03.002-.02c-.427 0-.845-.041-1.249-.121l.041.007c.864 2.628 3.274 4.502 6.128 4.554h.006a13.092 13.092 0 0 1-8.139 2.814h-.023.001-.053a12.88 12.88 0 0 1-1.568-.096L0 27.07C2.843 28.908 6.317 30 10.046 30h.006z"/></symbol><symbol id="icon-youtube" viewBox="0 0 32 32"><path fill="#fff" style="fill:var(--color1,#fff)" d="M16 0C7.165 0 0 7.165 0 16s7.165 16 16 16 16-7.165 16-16S24.835 0 16 0zm9.998 16.016s0 3.245-.412 4.81a2.506 2.506 0 0 1-1.762 1.762C22.259 23 16 23 16 23s-6.242 0-7.823-.428a2.504 2.504 0 0 1-1.762-1.762c-.412-1.548-.412-4.809-.412-4.809s0-3.245.412-4.809a2.557 2.557 0 0 1 1.762-1.779C9.742 9.001 16 9.001 16 9.001s6.259 0 7.824.428c.856.23 1.532.906 1.762 1.762.428 1.565.412 4.826.412 4.826zM19.212 16l-5.205 2.998v-5.995l5.205 2.998z"/></symbol><symbol id="icon-logo" viewBox="0 0 32 32"><path fill="#fff" style="fill:var(--color1,#fff)" d="M16 0c8.837 0 16 7.163 16 16s-7.163 16-16 16S0 24.837 0 16 7.163 0 16 0zM4.904 19.568c.221-.063.088-.37-.253-.182-.236.131-.412.354-.381.627.106.91.872.911 1.535.912l.148.001a2.312 2.312 0 0 0-.028.298c-.01.186-.022.393-.084.548-.112.277-.304.418-.389.481l-.027.02c-.049.039-.164.396-.226.591l-.038.116c-.031.087.053.479.099.543s.257.089.286.062c.024-.023.027-.027.011-.057l-.011-.022c-.027-.052-.053-.109-.068-.208s.073-.432.099-.504c.016-.042.173-.097.344-.156.119-.041.244-.084.332-.127.114-.056.224-.128.302-.18.068-.045.112-.074.115-.063.005.025-.015.427-.029.516s.145.238.3.372a.701.701 0 0 1 .144.181c.039.064.069.113.132.127.116.025.286 0 .354-.015a.117.117 0 0 1 .066.007c.029.009.051.017.075-.032.039-.079-.029-.144-.087-.184-.019-.013-.047-.027-.079-.044-.066-.034-.148-.076-.197-.13l-.028-.031c-.073-.078-.168-.18-.151-.232a.539.539 0 0 1 .07-.105c.063-.083.147-.195.172-.297.039-.159.058-.268.058-.268s.267.02.499.079c.233.06.678.055.678.055s-.068.119-.116.208l-.013.023c-.053.096-.148.268-.099.364.053.104.286.526.412.576.093.036.172.027.237.02a.498.498 0 0 1 .064-.005c.073 0 .116-.02.077-.089a.171.171 0 0 0-.109-.087l-.022-.007-.021-.007c-.037-.011-.076-.023-.104-.073a.821.821 0 0 1-.063-.308c0-.065.117-.191.225-.307.049-.052.095-.103.129-.144.107-.134.14-.213.14-.213s.034.288.073.392c.039.104.291.313.45.427a.61.61 0 0 1 .178.205c.021.035.036.06.055.068.048.02.204.052.266.032s.114-.06.056-.124a.629.629 0 0 0-.129-.101.639.639 0 0 1-.058-.04c-.046-.037-.349-.474-.378-.662s-.039-.303-.014-.417a.49.49 0 0 1 .044-.144l.015-.015c.043-.043.167-.164.225-.208.07-.055.443-.114.523-.067l.042.027c.048.033.075.052.156.012a.71.71 0 0 0 .195-.162l.018-.02a.1.1 0 0 1 .024-.019.113.113 0 0 0 .017-.012c.021-.017.024-.021.019-.042a.676.676 0 0 0-.034-.067c-.04-.075-.103-.191-.113-.248a.644.644 0 0 1-.007-.056c-.002-.032-.003-.045-.038-.094-.03-.042-.112-.113-.173-.166-.041-.036-.073-.063-.071-.066l.001-.001a.459.459 0 0 0 .054-.124c0-.03-.188.02-.188.02s.031-.042.024-.102c-.007-.06-.022-.093-.031-.094a.88.88 0 0 0-.245.206l-.011.004c-.061.022-.353.128-.538.126-.163-.002-.406-.04-.601-.07a4.826 4.826 0 0 1-.407-.075c-.324-.07-.828-.18-1.18-.177-.48.005-.945.024-.993.045-.239.06-1.202.187-1.553.094-.489-.129-.642-.797-.153-.936zm19.006 2.077-6.145-14.89h-3.157L9.302 19.686l.069-.047.04-.028c.042-.029.117-.078.206-.135.224-.145.532-.346.603-.417.099-.099.294-.435.372-.702s.278-.638.337-.737l.006-.01c.058-.097.128-.213.132-.288a.67.67 0 0 1 .079-.209c.024-.051.05-.106.073-.162.03-.075.052-.176.07-.258s.032-.149.047-.15c.029-.003.104.16.143.257s.132.305.147.337c.014.029.076.045.13.059l.014.004c.027.007.078.033.134.061.06.03.125.063.172.079a.323.323 0 0 1 .156.092c.018.018.033.041.05.065.02.03.042.063.074.093.057.053.197.082.313.106.061.012.137.041.211.069.065.025.128.049.177.06.104.023.092.058.072.113s-.083.156-.134.214l-.033.042c-.034.045-.069.094-.166.147-.11.06-.201.063-.286.066l-.038.001c-.036.002-.077.008-.119.014-.07.011-.146.023-.216.016-.079-.008-.125-.002-.172.004a1.01 1.01 0 0 1-.063.007c-.058.004-.068.018-.081.037-.004.006-.009.014-.017.021-.029.029-.09.184-.104.412-.004.073-.012.159-.019.247a3.591 3.591 0 0 0-.023.473c.008.089.049.211.096.354.025.076.052.158.077.244.056.189.046.347.039.47-.002.039-.004.075-.004.107.001.122-.06.286-.107.413l-.011.029-.072.187a64.124 64.124 0 0 0-.677 1.8l3.138-.001v-.508c-1.26-.047-1.891-.457-1.891-1.229 0-.268.055-.544.165-.827l.851-2.174h5.542l1.134 2.73c.063.15.095.311.095.485 0 .63-.717.969-2.151 1.016v.508h7.717v-.508h-.095c-.764 0-1.296-.362-1.595-1.087zm-10.281-4.089 2.316-5.979 2.47 5.979h-4.786z"/></symbol></defs></svg>