<svg aria-hidden="true" style="width:0;height:0;position:absolute;overflow:hidden" xmlns="http://www.w3.org/2000/svg"><defs><symbol id="icon-logo" viewBox="0 0 32 32"><path fill="#fffefe" style="fill:var(--color1,#fffefe)" d="M0 0h32v32H0V0z"/><path fill="#59443f" style="fill:var(--color2,#59443f)" d="M3.971 21.05c.404-.224.562.141.3.215-.579.164-.398.957.182 1.109.416.11 1.558-.041 1.841-.112.056-.025.608-.047 1.177-.053s1.473.238 1.714.273c.241.035.634.106.878.109s.644-.153.652-.154c.007-.001.027-.023.075-.079s.204-.166.215-.165c.012.001.029.041.037.112s-.029.121-.029.121.223-.059.223-.024c0 .035-.059.138-.065.148s.23.191.289.275c.059.084.036.079.053.178s.168.348.174.373c.006.025.001.029-.023.05s-.02.009-.049.037c-.029.028-.132.156-.253.215s-.141.009-.235-.047c-.095-.056-.537.015-.62.079a4.346 4.346 0 0 0-.266.247l-.018.018s-.023.035-.052.171-.017.27.017.494c.034.223.393.741.448.785s.152.091.221.168c.069.076.009.123-.066.147s-.258-.015-.316-.038c-.057-.024-.086-.188-.276-.323s-.488-.382-.534-.506c-.046-.124-.086-.465-.086-.465s-.04.094-.166.253-.419.423-.419.535.034.294.075.365c.04.071.098.076.149.094l.026.009a.203.203 0 0 1 .129.103c.046.082-.006.106-.092.106s-.207.041-.356-.018-.425-.559-.488-.682.075-.353.132-.459c.057-.106.138-.247.138-.247s-.528.006-.804-.065c-.276-.071-.592-.094-.592-.094s-.023.129-.069.317c-.046.188-.264.406-.287.476s.126.218.212.312.258.159.327.206.149.123.103.218c-.046.094-.086.012-.166.029s-.281.047-.419.018c-.138-.029-.144-.206-.327-.365s-.373-.335-.356-.441c.017-.106.04-.582.034-.612s-.241.165-.494.288c-.253.124-.769.25-.801.335s-.135.479-.118.597a.726.726 0 0 0 .08.247l.013.026c.018.037.015.041-.013.068-.034.032-.284.003-.339-.074s-.155-.541-.118-.644c.037-.103.238-.779.313-.838s.344-.223.494-.594c.118-.293.082-.745.133-1.003-.82-.008-1.86.078-1.995-1.082-.038-.324.171-.589.451-.744zM19.514 6.08l7.283 17.647c.355.859.985 1.288 1.891 1.288h.112v.602h-9.146v-.602c1.699-.056 2.549-.458 2.549-1.204 0-.205-.037-.397-.112-.574l-1.345-3.235h-6.569l-1.008 2.577a2.69 2.69 0 0 0-.196.98c0 .915.747 1.401 2.241 1.457v.602l-3.72.001c.261-.753.844-2.236.888-2.355.057-.155.142-.368.14-.524s.046-.389-.041-.684c-.087-.296-.19-.549-.205-.71s.034-.584.05-.854.089-.453.123-.488c.034-.034.023-.063.116-.069s.145-.025.279-.012c.133.013.284-.03.397-.036s.234.003.384-.079.176-.155.236-.223.134-.188.158-.253c.025-.066.039-.107-.085-.134s-.322-.126-.46-.154c-.137-.027-.304-.062-.371-.125s-.098-.139-.146-.187-.075-.073-.185-.109c-.109-.036-.296-.148-.363-.166s-.153-.037-.172-.074c-.018-.037-.129-.285-.174-.399s-.135-.308-.169-.304c-.034.004-.067.305-.139.484s-.175.347-.179.44c-.004.092-.093.238-.163.354s-.307.556-.399.873c-.092.317-.323.714-.441.832s-.784.534-.959.654l-.13.089L15.772 6.08h3.742zm-2.157 5.714-2.745 7.087h5.672l-2.927-7.087z"/></symbol></defs></svg>