<svg aria-hidden="true" style="width:0;height:0;position:absolute;overflow:hidden" xmlns="http://www.w3.org/2000/svg"><defs><symbol id="icon-facebook" viewBox="0 0 32 32"><path d="M32 16.098c0-8.892-7.164-16.1-16-16.1C7.16 0-.004 7.206-.004 16.1c0 8.034 5.852 14.694 13.5 15.902v-11.25h-4.06V16.1H13.5v-3.55c0-4.034 2.39-6.262 6.044-6.262 1.752 0 3.582.314 3.582.314v3.96h-2.018c-1.986 0-2.606 1.242-2.606 2.516v3.02h4.436l-.708 4.652H18.5V32C26.148 30.792 32 24.132 32 16.098z"/></symbol><symbol id="icon-instagram" viewBox="0 0 32 32"><path d="M16 0c-4.342 0-4.888.02-6.594.096C7.7.176 6.538.444 5.52.84a7.868 7.868 0 0 0-2.833 1.845l-.001.001a7.88 7.88 0 0 0-1.828 2.78L.84 5.52C.444 6.536.174 7.7.096 9.4.02 11.11 0 11.654 0 16.002c0 4.344.02 4.888.096 6.594.08 1.704.348 2.866.744 3.884a7.858 7.858 0 0 0 1.846 2.834 7.808 7.808 0 0 0 2.832 1.846c1.02.396 2.18.666 3.884.744C11.11 31.98 11.654 32 16 32s4.888-.02 6.596-.096c1.702-.08 2.868-.348 3.886-.744a7.868 7.868 0 0 0 2.831-1.845l.001-.001a7.858 7.858 0 0 0 1.846-2.834c.394-1.018.664-2.18.744-3.884C31.98 20.89 32 20.346 32 16s-.02-4.89-.096-6.598c-.08-1.702-.35-2.866-.744-3.882a7.903 7.903 0 0 0-1.845-2.833l-.001-.001a7.844 7.844 0 0 0-2.78-1.828L26.48.84C25.46.444 24.296.174 22.594.096 20.886.02 20.344 0 15.996 0h.006zm-1.434 2.884h1.436c4.272 0 4.778.014 6.464.092 1.56.07 2.408.332 2.972.55.746.29 1.28.638 1.84 1.198s.906 1.092 1.196 1.84c.22.562.48 1.41.55 2.97.078 1.686.094 2.192.094 6.462s-.016 4.778-.094 6.464c-.07 1.56-.332 2.406-.55 2.97a4.968 4.968 0 0 1-1.197 1.837l-.001.001c-.56.56-1.092.906-1.84 1.196-.56.22-1.408.48-2.97.552-1.686.076-2.192.094-6.464.094s-4.78-.018-6.466-.094c-1.56-.072-2.406-.332-2.97-.552a4.98 4.98 0 0 1-1.839-1.195l-.001-.001a4.98 4.98 0 0 1-1.189-1.806l-.011-.034c-.218-.562-.48-1.41-.55-2.97-.076-1.686-.092-2.192-.092-6.466 0-4.272.016-4.776.092-6.462.072-1.56.332-2.408.552-2.972.29-.746.638-1.28 1.198-1.84s1.092-.906 1.84-1.196c.564-.22 1.41-.48 2.97-.552 1.476-.068 2.048-.088 5.03-.09v.004zm9.976 2.656a1.92 1.92 0 0 0 0 3.84 1.92 1.92 0 0 0 0-3.84zm-8.54 2.244-.128-.001c-4.539 0-8.218 3.679-8.218 8.218s3.679 8.218 8.218 8.218l.135-.001h-.007a8.218 8.218 0 0 0 .007-16.434h-.007zm0 2.882a5.334 5.334 0 1 1 0 10.668 5.334 5.334 0 1 1 0-10.668z"/></symbol><symbol id="icon-twitter" viewBox="0 0 32 32"><path d="M10.052 30c12.076 0 18.682-10.006 18.682-18.668 0-.28 0-.564-.012-.844a13.492 13.492 0 0 0 3.248-3.357l.03-.047c-1.1.499-2.376.863-3.713 1.029l-.065.007a6.636 6.636 0 0 0 2.881-3.587l.013-.047a12.828 12.828 0 0 1-4.091 1.572l-.083.014a6.572 6.572 0 0 0-11.183 6.033l-.009-.045A18.638 18.638 0 0 1 2.242 5.235l-.026-.033a6.498 6.498 0 0 0-.885 3.296 6.57 6.57 0 0 0 2.898 5.453l.023.015a6.62 6.62 0 0 1-3.006-.833l.034.017v.09a6.578 6.578 0 0 0 5.221 6.428l.043.008c-.51.146-1.096.23-1.701.23h-.03.002-.02c-.427 0-.845-.041-1.249-.121l.041.007c.864 2.628 3.274 4.502 6.128 4.554h.006a13.092 13.092 0 0 1-8.139 2.814h-.023.001-.053a12.88 12.88 0 0 1-1.568-.096L0 27.07C2.843 28.908 6.317 30 10.046 30h.006z"/></symbol><symbol id="icon-youtube" viewBox="0 0 32 32"><path d="M16.102 3.998h.178c1.644.006 9.974.066 12.22.67a4.034 4.034 0 0 1 2.823 2.812l.007.028c.202.76.344 1.766.44 2.804l.02.208.044.52.016.208c.13 1.828.146 3.54.148 3.914v.15c-.002.388-.02 2.216-.164 4.12l-.016.21-.018.208c-.1 1.144-.248 2.28-.47 3.116a4.029 4.029 0 0 1-2.802 2.833l-.028.007c-2.32.624-11.138.668-12.36.67h-.284c-.618 0-3.174-.012-5.854-.104l-.34-.012-.174-.008-.684-.028c-2.22-.098-4.334-.256-5.308-.52a4.03 4.03 0 0 1-2.823-2.81l-.007-.028c-.222-.834-.37-1.972-.47-3.116l-.016-.21-.016-.208A60.333 60.333 0 0 1 0 15.386v-.272c.004-.43.02-1.916.128-3.556l.014-.206.006-.104.016-.208.044-.52.02-.208c.096-1.038.238-2.046.44-2.804A4.03 4.03 0 0 1 3.47 4.675l.028-.007c.974-.26 3.088-.42 5.308-.52l.34-.014.516-.018.342-.014c1.667-.058 3.667-.095 5.674-.102h.424zm-3.302 6.42v9.636l8.314-4.816-8.314-4.82z"/></symbol></defs></svg>