<svg aria-hidden="true" style="width:0;height:0;position:absolute;overflow:hidden" xmlns="http://www.w3.org/2000/svg"><defs><symbol id="icon-clock" viewBox="0 0 32 32"><path fill="#ffc59e" style="fill:var(--color1,#ffc59e)" d="M7.652 15.652c0-4.795 3.901-8.696 8.696-8.696s8.696 3.901 8.696 8.696-3.901 8.696-8.696 8.696-8.696-3.901-8.696-8.696zm1.85 0c0 3.775 3.071 6.845 6.846 6.845s6.846-3.071 6.846-6.845-3.071-6.845-6.846-6.845c-3.774 0-6.846 3.071-6.846 6.845z"/><path fill="#ffc59e" style="fill:var(--color1,#ffc59e)" d="M20.88 15.384h-3.908v-4.699a.717.717 0 0 0-1.432 0V16.1c0 .395.321.716.716.716h4.624a.717.717 0 0 0 0-1.432z"/></symbol><symbol id="icon-location" viewBox="0 0 32 32"><path fill="#ffc59e" style="fill:var(--color1,#ffc59e)" d="M22.628 10.592c-.072-.269-.218-.557-.326-.808-1.292-3.106-4.116-4.219-6.396-4.219-3.052 0-6.414 2.047-6.863 6.265v.862c0 .036.012.359.03.521.252 2.011 1.838 4.147 3.023 6.158 1.275 2.154 2.597 4.273 3.908 6.391.808-1.382 1.613-2.783 2.403-4.129.215-.395.465-.79.68-1.167.144-.251.418-.502.543-.736 1.275-2.334 3.326-4.685 3.326-7.001v-.951c0-.251-.311-1.131-.329-1.185zm-6.666 4.326c-.897 0-1.879-.449-2.364-1.688-.072-.197-.066-.592-.066-.629v-.557c0-1.579 1.341-2.298 2.508-2.298 1.436 0 2.547 1.149 2.547 2.585s-1.188 2.585-2.624 2.585z"/></symbol><symbol id="icon-phone" viewBox="0 0 32 32"><path fill="#ffc59e" style="fill:var(--color1,#ffc59e)" d="m24.654 21.377-2.686-2.686c-.535-.533-1.421-.517-1.974.037l-1.353 1.353-.267-.149c-.854-.473-2.024-1.122-3.255-2.354-1.234-1.234-1.884-2.405-2.359-3.261-.05-.091-.098-.178-.146-.261l1.355-1.354c.554-.555.57-1.44.036-1.975l-2.686-2.686c-.534-.534-1.42-.518-1.974.037l-.757.761.021.021a4.375 4.375 0 0 0-.624 1.1 4.51 4.51 0 0 0-.277 1.116c-.355 2.94.989 5.627 4.635 9.273 5.04 5.04 9.102 4.659 9.277 4.64a4.57 4.57 0 0 0 1.119-.281 4.363 4.363 0 0 0 1.096-.621l.017.015.767-.751c.553-.555.569-1.44.036-1.976z"/></symbol></defs></svg>