<svg aria-hidden="true" style="width:0;height:0;position:absolute;overflow:hidden" xmlns="http://www.w3.org/2000/svg"><defs><symbol id="icon-1" viewBox="0 0 41 32"><path fill="#ffc59e" style="fill:var(--color1,#ffc59e)" d="M.035 13.775c0-.527.341-1.178 1.023-1.954.803-.803 1.313-1.33 1.529-1.579.736-.857 1.468-1.714 2.197-2.572 1.04-1.343 1.559-2.336 1.559-2.977 0-.5-.11-.861-.329-1.083s-.538-.334-.957-.334c-.749 0-1.299.53-1.65 1.59s-.871 1.59-1.559 1.59c-.513 0-.908-.164-1.185-.491s-.415-.71-.415-1.149c0-1.316.478-2.443 1.433-3.382S3.833.027 5.27.027c1.316 0 2.425.418 3.326 1.256s1.352 1.924 1.352 3.26c0 .911-.277 1.846-.83 2.805-.371.648-1.006 1.475-1.904 2.481-1.242 1.397-1.914 2.16-2.015 2.288h3.534c.486 0 .866.159 1.139.476s.41.682.41 1.094c0 .425-.135.795-.405 1.109s-.651.471-1.144.471H1.949c-.554 0-1.011-.138-1.372-.415s-.542-.634-.542-1.073zm11.897-2.987c0-.277.078-.591.233-.942.081-.209.219-.449.415-.719l4.931-7.715c.277-.446.606-.754.987-.926S19.347.228 19.9.228c.763 0 1.369.231 1.817.694s.673 1.082.673 1.858v6.328h.699c.54 0 .959.12 1.256.359s.445.623.445 1.149c0 .513-.145.891-.435 1.134s-.712.365-1.266.365h-.699v1.387c0 1.255-.54 1.883-1.62 1.883s-1.62-.614-1.62-1.843v-1.428h-5.538c-.567 0-1.002-.152-1.306-.456-.25-.25-.375-.54-.375-.871zm7.219-1.68h-3.108l3.108-5.336v5.336zm11.195 9.237c0-.425.133-.795.4-1.109s.65-.471 1.149-.471h6.804c.526 0 .948.167 1.266.501s.476.707.476 1.119c0 .25-.041.493-.121.729-.027.067-.145.337-.354.81l-4.708 10.267c-.236.54-.452.911-.648 1.114-.304.331-.715.496-1.235.496-.499 0-.901-.159-1.205-.476s-.456-.668-.456-1.053c0-.223.02-.4.061-.532s.199-.488.476-1.068l4.131-8.768h-4.485c-.499 0-.883-.155-1.149-.466s-.4-.675-.4-1.094zm-10.604 7.339c-.354.739-.532 1.306-.532 1.701 0 1.124.582 1.686 1.747 1.686.395 0 .759-.162 1.094-.486s.78-1.023 1.337-2.096l8.368-16.114c.435-.83.714-1.392.835-1.686.233-.537.349-.972.349-1.306 0-1.114-.582-1.671-1.747-1.671-.496 0-.952.268-1.367.805-.233.294-.587.886-1.063 1.777l-8.368 16.114c-.142.294-.359.719-.653 1.276z"/></symbol><symbol id="icon-2" viewBox="0 0 27 32"><path fill="#ffc59e" style="fill:var(--color1,#ffc59e)" d="M14.179 11.126c.146-.049.332-.289.341-.442.215-3.674-2.819-8.572-3.912-10.207-.88.351-1.735.917-2.526 1.781 0 0-1.578 1.059-2.138 6.204 2.951 3.822 6.618 3.197 8.233 2.664z"/><path fill="#ffc59e" style="fill:var(--color1,#ffc59e)" d="m25.884 4.605-4.835-1.18s-.138-1.167-1.509-1.646c-.999-.35-4.443-2.329-7.83-1.63 1.281 1.95 4.13 6.755 3.905 10.599-.034.604-.514 1.229-1.092 1.42a8.927 8.927 0 0 1-2.763.441c-1.755 0-3.959-.54-5.944-2.614a39.876 39.876 0 0 0-.065 2.144c-.022 3.98-5.077 7.753-5.077 7.753l-.673 1.395a18.265 18.265 0 0 0 6.203 7.364c.121-1.901.598-3.39 1.15-4.509 1.045-2.125 2.512-3.305 3.26-3.804.161-4.386 1.585-5.668 2.772-5.962.365-.09.749-.013 1.052.215.344.257.566.681.588 1.136.061 1.179.758 2.007 1.088 2.335.536.05 1.047.135 1.529.252l.044-.414.368-3.574c.062-.603.605-1.112 1.205-1.198 2.279-.332 7.356-1.682 7.686-7.167.038-.605-.473-1.213-1.062-1.358zm-7.533 1.274a.618.618 0 1 1 0-1.235.618.618 0 0 1 0 1.235z"/><path fill="#ffc59e" style="fill:var(--color1,#ffc59e)" d="M21.05 22.21c-.183-1.555-2.378-2.836-5.214-3.018 0 0-1.506-1.158-1.607-3.156-.017-.303-.243-.603-.536-.531-.758.186-2.045 1.16-2.109 5.603 0 0-4.122 2.08-4.42 8.076a18.015 18.015 0 0 0 9.008 2.573l-.037-.859a.803.803 0 0 1 .489-.74l3.511-1.317s1.647.092 2.332-1.144a8.415 8.415 0 0 1 .906-1.339.56.56 0 0 0-.026-.772c-.717-.692-2.16-2.213-2.296-3.375zm-2.083 1.505a.617.617 0 1 1 0-1.233.617.617 0 0 1 0 1.233z"/></symbol><symbol id="icon-3" viewBox="0 0 26 32"><path fill="#ffc59e" style="fill:var(--color1,#ffc59e)" d="M15.095 3.157c-.427-1.096-1.034-1.905-1.805-2.403C12.547.273 11.667.088 10.666.2c-.283-.226-.656-.271-.941-.08-.38.253-.465.827-.191 1.278s.806.612 1.186.359a.773.773 0 0 0 .277-.34c1.029-.063 1.825.306 2.419 1.116.782 1.066 1.221 2.938 1.238 5.272a18.918 18.918 0 0 1-.19 2.862l1.333-1.388c.008-.128.016-.257.021-.386.058-1.3.042-3.774-.722-5.736zm-8.344.957c-.493.939-.511 1.839-.058 2.734.596 1.178 2.039 2.372 4.065 3.362 1.139.556 2.156.906 2.817 1.085l-.962.987a18.306 18.306 0 0 1-1.404-.527c-1.157-.488-3.306-1.536-4.689-3.071-.773-.858-1.219-1.765-1.324-2.696-.102-.897.112-1.8.635-2.692-.076-.36.044-.728.332-.916.383-.25.918-.091 1.195.354s.19 1.011-.193 1.262a.727.727 0 0 1-.414.118zm15.232 13.06c.298.413 1.388 1.928-.197 3.662-.798.872-2.366 2.497-5.56 3.853-1.41.599-7.854 5.317-9.818 7.31L0 27.255s7.371-5.433 7.999-6.719c.277-.567.364-1.624.458-2.761.079-.959.163-1.975.369-2.805.199-.803.568-1.763 1.982-1.928.623-.073 1.232.202 1.702.413.129.058.247.111.352.151l3.467-3.518c.688-.71 1.481-1.064 2.315-.236s.546 1.996.546 1.996.533-.188 1.238.544c.104.108.195.223.267.346.264.447.308.984.133 1.599.228.098.545.269.814.543.16.163.286.345.373.54.224.5.202 1.073-.066 1.706l.034.047zm.44 6.724c.943-.628 2.194-.338 2.795.648s.323 2.293-.62 2.92c-.943.628-2.194.337-2.795-.648a2.19 2.19 0 0 1-.292-1.467 11.78 11.78 0 0 1-1.795-1.215c.434-.289.823-.579 1.172-.865.394.296.821.57 1.283.823.078-.072.162-.138.252-.198z"/></symbol><symbol id="icon-4" viewBox="0 0 27 32"><path fill="#ffc59e" style="fill:var(--color1,#ffc59e)" d="m17.43 10.685 8.523 15.764C28.017 29.514 26.668 32 22.94 32H4.036c-3.729 0-5.125-2.516-3.12-5.62l7.846-15.695V2.68H7.99a.67.67 0 0 1-.675-.667V.666c0-.368.302-.667.675-.667h10.284c.373 0 .675.299.675.667v1.347a.67.67 0 0 1-.675.667h-.843v8.004zm-5.968.622-3.693 7.389H18.7l-3.971-7.343V2.681h-3.267v8.627z"/></symbol><symbol id="icon-5" viewBox="0 0 38 32"><path fill="#ffc59e" style="fill:var(--color1,#ffc59e)" d="m28.577 8.997 8.904 8.882c.569.568.569 1.489 0 2.057s-1.493.568-2.062 0l-3.343-3.335v13.943c0 .803-.653 1.455-1.458 1.455H7.29a1.456 1.456 0 0 1-1.458-1.455V16.6l-3.343 3.335c-.285.284-.658.426-1.031.426a1.456 1.456 0 0 1-1.031-2.483L17.922.424a1.46 1.46 0 0 1 2.062 0l8.593 8.571zm-15.532 9.28a1.172 1.172 0 0 0 2.346 0c0-.647-.525-1.171-1.173-1.171s-1.173.524-1.173 1.171zm3.968-4.003c.72 0 1.304.582 1.304 1.301s-.584 1.301-1.304 1.301a1.302 1.302 0 1 1 0-2.602zm-1.252 6.977c0 1.759 1.429 3.185 3.193 3.185s3.193-1.426 3.193-3.185c0-1.759-1.429-3.185-3.193-3.185s-3.193 1.426-3.193 3.185zm5.133-4.375c-.72 0-1.304-.582-1.304-1.301s.584-1.301 1.304-1.301c.72 0 1.304.582 1.304 1.301s-.584 1.301-1.304 1.301zm1.622 1.401a1.172 1.172 0 0 0 2.346 0 1.172 1.172 0 0 0-2.346 0z"/></symbol><symbol id="icon-6" viewBox="0 0 22 32"><path fill="#ffc59e" style="fill:var(--color1,#ffc59e)" d="M18.606 7.532a11.284 11.284 0 0 0-3.593-2.419l-.007-.003a.984.984 0 0 0-1.207.373l-.767 1.191a2.44 2.44 0 0 0-.608-.122c-.063-.003-.129-.007-.195-.007a2.5 2.5 0 0 0-.522.056l1.772-2.759a.987.987 0 0 0-.301-1.366L9.565.156a.993.993 0 0 0-1.372.3l-6.284 9.782a.987.987 0 0 0 .301 1.366l.684.439-.816 1.274a.987.987 0 0 0 .301 1.366l.588.376a.99.99 0 0 0 1.368-.3l.195-.304.621-.97.674.432a.993.993 0 0 0 1.371-.3L9.774 9.6c.053.238.139.462.258.67a2.51 2.51 0 0 0 2.271 1.287 2.522 2.522 0 0 0 2.294-3.36 8.336 8.336 0 0 1 1.904 1.426c1.573 1.571 2.439 3.657 2.439 5.878s-.866 4.307-2.439 5.878a8.284 8.284 0 0 1-3.441 2.073.983.983 0 0 1-.294.043H9.513a.99.99 0 0 1-.992-.99v-.221H3.784v4.456c.102-.007.208-.01.311-.01h14.22a2.418 2.418 0 0 0 1.993-2.376c0-.733-.327-1.389-.843-1.832a11.238 11.238 0 0 0 2.449-7.013c0-1.522-.297-3-.889-4.393a11.252 11.252 0 0 0-2.423-3.584zm-6.377 2.425a.901.901 0 0 1-.153-1.792.9.9 0 0 1 1.057.888.907.907 0 0 1-.906.904zm5.663 15.241a.854.854 0 0 0 .849-.848.842.842 0 0 0-.846-.842.845.845 0 0 0-.003 1.69zm-6.274-4.157c.361 0 .656-.32.656-.711v-.331c0-.391-.295-.711-.656-.711H.657c-.361 0-.656.32-.656.711v.331c0 .391.295.711.656.711h10.961zM0 32c0-2.312 1.711-4.207 3.884-4.373a4.58 4.58 0 0 1 .312-.01h14.215v3.342c0 .576-.445 1.041-.997 1.041H0z"/></symbol><symbol id="icon-7" viewBox="0 0 32 32"><path fill="#ffc59e" style="fill:var(--color1,#ffc59e)" d="M17 10.068v2.2l1.906-1.1 1 1.734L18 14l1.906 1.1-1 1.732-1.906-1.1v2.2h-2v-2.2l-1.906 1.1-1-1.732L14 14l-1.906-1.1 1-1.732 1.906 1.1v-2.2h2zM26.5 18a.5.5 0 0 0-.5.5v1a.5.5 0 0 0 .5.5h1a.5.5 0 0 0 .5-.5v-1a.5.5 0 0 0-.5-.5h-1zm-.5 4.5a.5.5 0 0 1 .5-.5h1a.5.5 0 0 1 .5.5v1a.5.5 0 0 1-.5.5h-1a.5.5 0 0 1-.5-.5v-1zm.5 3.5a.5.5 0 0 0-.5.5v1a.5.5 0 0 0 .5.5h1a.5.5 0 0 0 .5-.5v-1a.5.5 0 0 0-.5-.5h-1zm-22-8a.5.5 0 0 0-.5.5v1a.5.5 0 0 0 .5.5h1a.5.5 0 0 0 .5-.5v-1a.5.5 0 0 0-.5-.5h-1zm0 4a.5.5 0 0 0-.5.5v1a.5.5 0 0 0 .5.5h1a.5.5 0 0 0 .5-.5v-1a.5.5 0 0 0-.5-.5h-1zM4 26.5a.5.5 0 0 1 .5-.5h1a.5.5 0 0 1 .5.5v1a.5.5 0 0 1-.5.5h-1a.5.5 0 0 1-.5-.5v-1z"/><path fill="#ffc59e" style="fill:var(--color1,#ffc59e)" d="M10 2a2 2 0 0 1 2-2h8a2 2 0 0 1 2 2v2a2 2 0 0 1 2 2v8h6a2 2 0 0 1 2 2v14a2 2 0 0 1-2 2H2a2 2 0 0 1-2-2V16a2 2 0 0 1 2-2h6V6a2 2 0 0 1 2-2V2zm4 28h4v-6h-4v6zm6 0h2V6H10v24h2v-6a2 2 0 0 1 2-2h4a2 2 0 0 1 2 2v6zm0-28h-8v2h8V2zm4 14v14h6V16h-6zM8 30V16H2v14h6z"/></symbol><symbol id="icon-8" viewBox="0 0 32 32"><path fill="#ffc59e" style="fill:var(--color1,#ffc59e)" d="M17.709 2.485a8.295 8.295 0 0 1 11.842 0c3.264 3.316 3.264 8.71 0 12.024l-1.341 1.488a9.123 9.123 0 0 0-3.65-.761c-2.258 0-4.304.854-5.917 2.218l-7.839-7.959 6.904-7.01zm-8.512 8.32 7.842 7.89c-1.281 1.603-2.08 3.611-2.08 5.823 0 1.302.269 2.541.749 3.669l-1.369 1.384c-3.262 3.281-8.631 3.218-11.893-.062-3.261-3.282-3.261-8.622 0-11.904l6.751-6.799zm7.842 13.507c0 3.752 2.906 6.815 6.649 7.273V17.04c-3.744.458-6.649 3.52-6.649 7.273zm8.312 7.272V17.039c3.744.458 6.649 3.52 6.649 7.273s-2.906 6.815-6.649 7.273z"/></symbol><symbol id="icon-9" viewBox="0 0 35 32"><path fill="#ffc59e" style="fill:var(--color1,#ffc59e)" d="M27.605.678c-2.119-1.255-4.857-.586-6.063 1.525l-6.2 10.859-4.495-.855c.228-2.781-1.694-5.363-4.48-5.893C3.425 5.755.635 7.696.135 10.65s1.48 5.803 4.423 6.362a5.292 5.292 0 0 0 5.151-1.901l5.505 1.047-2.761 4.836a5.28 5.28 0 0 0-4.797 2.659c-1.476 2.585-.569 5.925 2.024 7.461s5.893.686 7.369-1.898c1.397-2.448.658-5.572-1.627-7.201l2.254-3.949 12.36 2.35c2.404.457 4.691-1.178 5.099-3.592l-15.11-2.872L27.604.677zM6.675 14.411c-1.397.64-3.067.008-3.729-1.411s-.067-3.09 1.331-3.73c1.398-.64 3.067-.008 3.73 1.411s.067 3.09-1.331 3.73zm3.072 13.175c.662 1.42 2.332 2.051 3.73 1.411s1.993-2.31 1.331-3.73c-.662-1.42-2.332-2.052-3.73-1.411s-1.993 2.31-1.331 3.73z"/></symbol></defs></svg>