<svg width="110" height="110" fill="none" xmlns="http://www.w3.org/2000/svg"><path d="M109.057.944a3.223 3.223 0 0 0-4.558 0L89.424 16.019c-3.593-1.712-8.031-1.084-11.002 1.887l-7.228 7.228c-3.593-1.712-8.032-1.084-11.002 1.887L28.812 58.4a31.608 31.608 0 0 0-11.907-2.309h-.01c-5.33 0-9.667 4.337-9.667 9.668 0 5.33 4.337 9.667 9.667 9.667 1.187 0 2.364.178 3.493.513L7.78 88.547 5.501 86.27a3.222 3.222 0 1 0-4.557 4.557l18.23 18.23a3.222 3.222 0 1 0 4.558-4.557l-2.28-2.279L34.06 89.612a12.28 12.28 0 0 1 .513 3.493 9.604 9.604 0 0 0 2.831 6.836 9.607 9.607 0 0 0 6.836 2.831c5.33 0 9.667-4.337 9.667-9.667a31.612 31.612 0 0 0-2.309-11.916L82.98 49.808a9.67 9.67 0 0 0 1.891-11.006l7.224-7.224a9.67 9.67 0 0 0 1.891-11.006L109.056 5.5a3.222 3.222 0 0 0 .001-4.557ZM16.896 97.662l-4.558-4.557 13.673-13.673 4.558 4.558-13.673 13.672Zm27.345-1.335a3.218 3.218 0 0 1-3.222-3.222c0-5.045-2.095-9.875-5.501-13.28l-5.341-5.342c-3.398-3.398-8.225-5.501-13.28-5.501a3.226 3.226 0 0 1-3.223-3.222 3.226 3.226 0 0 1 3.223-3.222h.008c6.733 0 13.065 2.624 17.83 7.388l5.34 5.34c4.766 4.767 7.39 11.102 7.388 17.839a3.226 3.226 0 0 1-3.222 3.222ZM57.914 65.76l-2.279-2.28a3.222 3.222 0 1 0-4.557 4.558l2.278 2.28-4.943 4.943a32.062 32.062 0 0 0-3.78-4.552l-5.341-5.341a32.026 32.026 0 0 0-4.552-3.78L48.8 47.53 62.47 61.202l-4.557 4.558Zm20.508-20.51-2.278 2.28-2.28-2.279a3.223 3.223 0 0 0-4.557 4.558l2.28 2.279-4.559 4.557-13.672-13.673L64.75 31.578a3.227 3.227 0 0 1 4.557 0l9.115 9.115a3.22 3.22 0 0 1 0 4.558Zm9.115-18.23-6.836 6.837-4.557-4.557 6.836-6.837a3.227 3.227 0 0 1 4.557 0 3.22 3.22 0 0 1 0 4.558Z" fill="#FFC59E"/></svg>