<svg aria-hidden="true" style="position: absolute; width: 0; height: 0; overflow: hidden;" version="1.1" xmlns="http://www.w3.org/2000/svg" xmlns:xlink="http://www.w3.org/1999/xlink">
<defs>
<symbol id="icon-logo" viewBox="0 0 32 32">
<path fill="#fffefe" style="fill: var(--color1, #fffefe)" d="M0 0h32v32h-32v-32z"></path>
<path fill="#59443f" style="fill: var(--color2, #59443f)" d="M3.971 21.050c0.404-0.224 0.562 0.141 0.3 0.215-0.579 0.164-0.398 0.957 0.182 1.109 0.416 0.11 1.558-0.041 1.841-0.112 0.056-0.025 0.608-0.047 1.177-0.053s1.473 0.238 1.714 0.273c0.241 0.035 0.634 0.106 0.878 0.109s0.644-0.153 0.652-0.154c0.007-0.001 0.027-0.023 0.075-0.079s0.204-0.166 0.215-0.165c0.012 0.001 0.029 0.041 0.037 0.112s-0.029 0.121-0.029 0.121 0.223-0.059 0.223-0.024c0 0.035-0.059 0.138-0.065 0.148s0.23 0.191 0.289 0.275c0.059 0.084 0.036 0.079 0.053 0.178s0.168 0.348 0.174 0.373c0.006 0.025 0.001 0.029-0.023 0.050s-0.020 0.009-0.049 0.037c-0.029 0.028-0.132 0.156-0.253 0.215s-0.141 0.009-0.235-0.047c-0.095-0.056-0.537 0.015-0.62 0.079-0.068 0.053-0.215 0.196-0.266 0.247l-0.018 0.018c0 0-0.023 0.035-0.052 0.171s-0.017 0.27 0.017 0.494c0.034 0.223 0.393 0.741 0.448 0.785s0.152 0.091 0.221 0.168c0.069 0.076 0.009 0.123-0.066 0.147s-0.258-0.015-0.316-0.038c-0.057-0.024-0.086-0.188-0.276-0.323s-0.488-0.382-0.534-0.506c-0.046-0.124-0.086-0.465-0.086-0.465s-0.040 0.094-0.166 0.253c-0.126 0.159-0.419 0.423-0.419 0.535s0.034 0.294 0.075 0.365c0.040 0.071 0.098 0.076 0.149 0.094l0.026 0.009c0.044 0.015 0.091 0.034 0.129 0.103 0.046 0.082-0.006 0.106-0.092 0.106s-0.207 0.041-0.356-0.018c-0.149-0.059-0.425-0.559-0.488-0.682s0.075-0.353 0.132-0.459c0.057-0.106 0.138-0.247 0.138-0.247s-0.528 0.006-0.804-0.065c-0.276-0.071-0.592-0.094-0.592-0.094s-0.023 0.129-0.069 0.317c-0.046 0.188-0.264 0.406-0.287 0.476s0.126 0.218 0.212 0.312c0.086 0.094 0.258 0.159 0.327 0.206s0.149 0.123 0.103 0.218c-0.046 0.094-0.086 0.012-0.166 0.029s-0.281 0.047-0.419 0.018c-0.138-0.029-0.144-0.206-0.327-0.365s-0.373-0.335-0.356-0.441c0.017-0.106 0.040-0.582 0.034-0.612s-0.241 0.165-0.494 0.288c-0.253 0.124-0.769 0.25-0.801 0.335s-0.135 0.479-0.118 0.597c0.017 0.118 0.049 0.185 0.080 0.247l0.013 0.026c0.018 0.037 0.015 0.041-0.013 0.068-0.034 0.032-0.284 0.003-0.339-0.074s-0.155-0.541-0.118-0.644c0.037-0.103 0.238-0.779 0.313-0.838s0.344-0.223 0.494-0.594c0.118-0.293 0.082-0.745 0.133-1.003-0.82-0.008-1.86 0.078-1.995-1.082-0.038-0.324 0.171-0.589 0.451-0.744zM19.514 6.080l7.283 17.647c0.355 0.859 0.985 1.288 1.891 1.288h0.112v0.602h-9.146v-0.602c1.699-0.056 2.549-0.458 2.549-1.204 0-0.205-0.037-0.397-0.112-0.574l-1.345-3.235h-6.569l-1.008 2.577c-0.131 0.336-0.196 0.663-0.196 0.98 0 0.915 0.747 1.401 2.241 1.457v0.602l-3.72 0.001c0.261-0.753 0.844-2.236 0.888-2.355 0.057-0.155 0.142-0.368 0.14-0.524s0.046-0.389-0.041-0.684c-0.087-0.296-0.19-0.549-0.205-0.71s0.034-0.584 0.050-0.854 0.089-0.453 0.123-0.488c0.034-0.034 0.023-0.063 0.116-0.069s0.145-0.025 0.279-0.012c0.133 0.013 0.284-0.030 0.397-0.036s0.234 0.003 0.384-0.079c0.15-0.082 0.176-0.155 0.236-0.223s0.134-0.188 0.158-0.253c0.025-0.066 0.039-0.107-0.085-0.134s-0.322-0.126-0.46-0.154c-0.137-0.027-0.304-0.062-0.371-0.125s-0.098-0.139-0.146-0.187-0.075-0.073-0.185-0.109c-0.109-0.036-0.296-0.148-0.363-0.166s-0.153-0.037-0.172-0.074c-0.018-0.037-0.129-0.285-0.174-0.399s-0.135-0.308-0.169-0.304c-0.034 0.004-0.067 0.305-0.139 0.484s-0.175 0.347-0.179 0.44c-0.004 0.092-0.093 0.238-0.163 0.354s-0.307 0.556-0.399 0.873c-0.092 0.317-0.323 0.714-0.441 0.832s-0.784 0.534-0.959 0.654c-0.052 0.036-0.093 0.064-0.13 0.089l6.288-15.326h3.742zM17.357 11.794l-2.745 7.087h5.672l-2.927-7.087z"></path>
</symbol>
</defs>
</svg>
