<svg aria-hidden="true" style="position: absolute; width: 0; height: 0; overflow: hidden;" version="1.1" xmlns="http://www.w3.org/2000/svg" xmlns:xlink="http://www.w3.org/1999/xlink">
<defs>
<symbol id="icon-clock" viewBox="0 0 32 32">
<path fill="#ffc59e" style="fill: var(--color1, #ffc59e)" d="M7.652 15.652c0-4.795 3.901-8.696 8.696-8.696s8.696 3.901 8.696 8.696c0 4.795-3.901 8.696-8.696 8.696s-8.696-3.901-8.696-8.696zM9.502 15.652c0 3.775 3.071 6.845 6.846 6.845s6.846-3.071 6.846-6.845-3.071-6.845-6.846-6.845c-3.774 0-6.846 3.071-6.846 6.845z"></path>
<path fill="#ffc59e" style="fill: var(--color1, #ffc59e)" d="M20.88 15.384h-3.908v-4.699c0-0.395-0.321-0.716-0.716-0.716s-0.716 0.321-0.716 0.716v5.415c0 0.395 0.321 0.716 0.716 0.716h4.624c0.395 0 0.716-0.321 0.716-0.716s-0.321-0.716-0.716-0.716z"></path>
</symbol>
<symbol id="icon-location" viewBox="0 0 32 32">
<path fill="#ffc59e" style="fill: var(--color1, #ffc59e)" d="M22.628 10.592c-0.072-0.269-0.218-0.557-0.326-0.808-1.292-3.106-4.116-4.219-6.396-4.219-3.052 0-6.414 2.047-6.863 6.265v0.862c0 0.036 0.012 0.359 0.030 0.521 0.252 2.011 1.838 4.147 3.023 6.158 1.275 2.154 2.597 4.273 3.908 6.391 0.808-1.382 1.613-2.783 2.403-4.129 0.215-0.395 0.465-0.79 0.68-1.167 0.144-0.251 0.418-0.502 0.543-0.736 1.275-2.334 3.326-4.685 3.326-7.001v-0.951c0-0.251-0.311-1.131-0.329-1.185zM15.962 14.918c-0.897 0-1.879-0.449-2.364-1.688-0.072-0.197-0.066-0.592-0.066-0.629v-0.557c0-1.579 1.341-2.298 2.508-2.298 1.436 0 2.547 1.149 2.547 2.585s-1.188 2.585-2.624 2.585z"></path>
</symbol>
<symbol id="icon-phone" viewBox="0 0 32 32">
<path fill="#ffc59e" style="fill: var(--color1, #ffc59e)" d="M24.654 21.377l-2.686-2.686c-0.535-0.533-1.421-0.517-1.974 0.037l-1.353 1.353c-0.085-0.047-0.174-0.096-0.267-0.149-0.854-0.473-2.024-1.122-3.255-2.354-1.234-1.234-1.884-2.405-2.359-3.261-0.050-0.091-0.098-0.178-0.146-0.261l1.355-1.354c0.554-0.555 0.57-1.44 0.036-1.975l-2.686-2.686c-0.534-0.534-1.42-0.518-1.974 0.037l-0.757 0.761 0.021 0.021c-0.254 0.324-0.466 0.697-0.624 1.1-0.146 0.383-0.236 0.749-0.277 1.116-0.355 2.94 0.989 5.627 4.635 9.273 5.040 5.040 9.102 4.659 9.277 4.64 0.382-0.046 0.747-0.137 1.119-0.281 0.399-0.156 0.773-0.368 1.096-0.621l0.017 0.015 0.767-0.751c0.553-0.555 0.569-1.44 0.036-1.976z"></path>
</symbol>
</defs>
</svg>
