<svg aria-hidden="true" style="position: absolute; width: 0; height: 0; overflow: hidden;" version="1.1" xmlns="http://www.w3.org/2000/svg" xmlns:xlink="http://www.w3.org/1999/xlink">
<defs>
<symbol id="icon-1" viewBox="0 0 41 32">
<path fill="#ffc59e" style="fill: var(--color1, #ffc59e)" d="M0.035 13.775c0-0.527 0.341-1.178 1.023-1.954 0.803-0.803 1.313-1.33 1.529-1.579 0.736-0.857 1.468-1.714 2.197-2.572 1.040-1.343 1.559-2.336 1.559-2.977 0-0.5-0.11-0.861-0.329-1.083s-0.538-0.334-0.957-0.334c-0.749 0-1.299 0.53-1.65 1.59s-0.871 1.59-1.559 1.59c-0.513 0-0.908-0.164-1.185-0.491s-0.415-0.71-0.415-1.149c0-1.316 0.478-2.443 1.433-3.382s2.152-1.407 3.589-1.407c1.316 0 2.425 0.418 3.326 1.256s1.352 1.924 1.352 3.26c0 0.911-0.277 1.846-0.83 2.805-0.371 0.648-1.006 1.475-1.904 2.481-1.242 1.397-1.914 2.16-2.015 2.288h3.534c0.486 0 0.866 0.159 1.139 0.476s0.41 0.682 0.41 1.094c0 0.425-0.135 0.795-0.405 1.109s-0.651 0.471-1.144 0.471h-6.784c-0.554 0-1.011-0.138-1.372-0.415s-0.542-0.634-0.542-1.073zM11.932 10.788c0-0.277 0.078-0.591 0.233-0.942 0.081-0.209 0.219-0.449 0.415-0.719l4.931-7.715c0.277-0.446 0.606-0.754 0.987-0.926s0.849-0.258 1.402-0.258c0.763 0 1.369 0.231 1.817 0.694s0.673 1.082 0.673 1.858v6.328h0.699c0.54 0 0.959 0.12 1.256 0.359s0.445 0.623 0.445 1.149c0 0.513-0.145 0.891-0.435 1.134s-0.712 0.365-1.266 0.365h-0.699v1.387c0 1.255-0.54 1.883-1.62 1.883s-1.62-0.614-1.62-1.843v-1.428h-5.538c-0.567 0-1.002-0.152-1.306-0.456-0.25-0.25-0.375-0.54-0.375-0.871zM19.151 9.108h-3.108l3.108-5.336v5.336zM30.346 18.345c0-0.425 0.133-0.795 0.4-1.109s0.65-0.471 1.149-0.471h6.804c0.526 0 0.948 0.167 1.266 0.501s0.476 0.707 0.476 1.119c0 0.25-0.041 0.493-0.121 0.729-0.027 0.067-0.145 0.337-0.354 0.81l-4.708 10.267c-0.236 0.54-0.452 0.911-0.648 1.114-0.304 0.331-0.715 0.496-1.235 0.496-0.499 0-0.901-0.159-1.205-0.476s-0.456-0.668-0.456-1.053c0-0.223 0.020-0.4 0.061-0.532s0.199-0.488 0.476-1.068l4.131-8.768h-4.485c-0.499 0-0.883-0.155-1.149-0.466s-0.4-0.675-0.4-1.094zM19.742 25.684c-0.354 0.739-0.532 1.306-0.532 1.701 0 1.124 0.582 1.686 1.747 1.686 0.395 0 0.759-0.162 1.094-0.486s0.78-1.023 1.337-2.096l8.368-16.114c0.435-0.83 0.714-1.392 0.835-1.686 0.233-0.537 0.349-0.972 0.349-1.306 0-1.114-0.582-1.671-1.747-1.671-0.496 0-0.952 0.268-1.367 0.805-0.233 0.294-0.587 0.886-1.063 1.777l-8.368 16.114c-0.142 0.294-0.359 0.719-0.653 1.276z"></path>
</symbol>
<symbol id="icon-2" viewBox="0 0 27 32">
<path fill="#ffc59e" style="fill: var(--color1, #ffc59e)" d="M14.179 11.126c0.146-0.049 0.332-0.289 0.341-0.442 0.215-3.674-2.819-8.572-3.912-10.207-0.88 0.351-1.735 0.917-2.526 1.781 0 0-1.578 1.059-2.138 6.204 2.951 3.822 6.618 3.197 8.233 2.664z"></path>
<path fill="#ffc59e" style="fill: var(--color1, #ffc59e)" d="M25.884 4.605l-4.835-1.18c0 0-0.138-1.167-1.509-1.646-0.999-0.35-4.443-2.329-7.83-1.63 1.281 1.95 4.13 6.755 3.905 10.599-0.034 0.604-0.514 1.229-1.092 1.42-0.555 0.185-1.552 0.441-2.763 0.441-1.755 0-3.959-0.54-5.944-2.614-0.039 0.659-0.061 1.372-0.065 2.144-0.022 3.98-5.077 7.753-5.077 7.753l-0.673 1.395c1.374 2.975 3.529 5.519 6.203 7.364 0.121-1.901 0.598-3.39 1.15-4.509 1.045-2.125 2.512-3.305 3.26-3.804 0.161-4.386 1.585-5.668 2.772-5.962 0.365-0.090 0.749-0.013 1.052 0.215 0.344 0.257 0.566 0.681 0.588 1.136 0.061 1.179 0.758 2.007 1.088 2.335 0.536 0.050 1.047 0.135 1.529 0.252l0.044-0.414 0.368-3.574c0.062-0.603 0.605-1.112 1.205-1.198 2.279-0.332 7.356-1.682 7.686-7.167 0.038-0.605-0.473-1.213-1.062-1.358zM18.351 5.879c-0.341 0-0.618-0.276-0.618-0.617s0.277-0.617 0.618-0.617c0.342 0 0.618 0.276 0.618 0.617-0.001 0.341-0.276 0.617-0.618 0.617z"></path>
<path fill="#ffc59e" style="fill: var(--color1, #ffc59e)" d="M21.050 22.21c-0.183-1.555-2.378-2.836-5.214-3.018 0 0-1.506-1.158-1.607-3.156-0.017-0.303-0.243-0.603-0.536-0.531-0.758 0.186-2.045 1.16-2.109 5.603 0 0-4.122 2.080-4.42 8.076 2.642 1.588 5.722 2.519 9.008 2.573l-0.037-0.859c-0.014-0.303 0.206-0.634 0.489-0.74l3.511-1.317c0 0 1.647 0.092 2.332-1.144 0.347-0.623 0.669-1.059 0.906-1.339 0.194-0.231 0.191-0.561-0.026-0.772-0.717-0.692-2.16-2.213-2.296-3.375zM18.967 23.715c-0.34 0-0.617-0.275-0.617-0.617s0.276-0.618 0.617-0.618c0.342 0 0.618 0.276 0.618 0.618s-0.276 0.617-0.618 0.617z"></path>
</symbol>
<symbol id="icon-3" viewBox="0 0 26 32">
<path fill="#ffc59e" style="fill: var(--color1, #ffc59e)" d="M15.095 3.157c-0.427-1.096-1.034-1.905-1.805-2.403-0.743-0.481-1.623-0.666-2.624-0.554-0.283-0.226-0.656-0.271-0.941-0.080-0.38 0.253-0.465 0.827-0.191 1.278s0.806 0.612 1.186 0.359c0.125-0.084 0.218-0.203 0.277-0.34 1.029-0.063 1.825 0.306 2.419 1.116 0.782 1.066 1.221 2.938 1.238 5.272 0.008 1.16-0.085 2.161-0.19 2.862l1.333-1.388c0.008-0.128 0.016-0.257 0.021-0.386 0.058-1.3 0.042-3.774-0.722-5.736zM6.751 4.114c-0.493 0.939-0.511 1.839-0.058 2.734 0.596 1.178 2.039 2.372 4.065 3.362 1.139 0.556 2.156 0.906 2.817 1.085l-0.962 0.987c-0.451-0.148-0.931-0.327-1.404-0.527-1.157-0.488-3.306-1.536-4.689-3.071-0.773-0.858-1.219-1.765-1.324-2.696-0.102-0.897 0.112-1.8 0.635-2.692-0.076-0.36 0.044-0.728 0.332-0.916 0.383-0.25 0.918-0.091 1.195 0.354s0.19 1.011-0.193 1.262c-0.126 0.083-0.269 0.12-0.414 0.118zM21.983 17.174c0.298 0.413 1.388 1.928-0.197 3.662-0.798 0.872-2.366 2.497-5.56 3.853-1.41 0.599-7.854 5.317-9.818 7.31l-6.408-4.744c0 0 7.371-5.433 7.999-6.719 0.277-0.567 0.364-1.624 0.458-2.761 0.079-0.959 0.163-1.975 0.369-2.805 0.199-0.803 0.568-1.763 1.982-1.928 0.623-0.073 1.232 0.202 1.702 0.413l0 0c0.129 0.058 0.247 0.111 0.352 0.151l3.467-3.518c0.688-0.71 1.481-1.064 2.315-0.236s0.546 1.996 0.546 1.996 0.533-0.188 1.238 0.544c0.104 0.108 0.195 0.223 0.267 0.346 0.264 0.447 0.308 0.984 0.133 1.599 0.228 0.098 0.545 0.269 0.814 0.543 0.16 0.163 0.286 0.345 0.373 0.54 0.224 0.5 0.202 1.073-0.066 1.706 0.010 0.014 0.021 0.029 0.034 0.047zM22.423 23.898c0.943-0.628 2.194-0.338 2.795 0.648s0.323 2.293-0.62 2.92c-0.943 0.628-2.194 0.337-2.795-0.648-0.276-0.453-0.366-0.975-0.292-1.467-0.656-0.363-1.254-0.769-1.795-1.215 0.434-0.289 0.823-0.579 1.172-0.865 0.394 0.296 0.821 0.57 1.283 0.823 0.078-0.072 0.162-0.138 0.252-0.198z"></path>
</symbol>
<symbol id="icon-4" viewBox="0 0 27 32">
<path fill="#ffc59e" style="fill: var(--color1, #ffc59e)" d="M17.43 10.685l8.523 15.764c2.064 3.065 0.715 5.551-3.013 5.551h-18.904c-3.729 0-5.125-2.516-3.12-5.62l7.846-15.695v-8.005h-0.772c-0.373 0-0.675-0.298-0.675-0.667v-1.347c0-0.368 0.302-0.667 0.675-0.667h10.284c0.373 0 0.675 0.299 0.675 0.667v1.347c0 0.369-0.302 0.667-0.675 0.667h-0.843v8.004zM11.462 11.307l-3.693 7.389h10.931l-3.971-7.343v-8.672h-3.267v8.627z"></path>
</symbol>
<symbol id="icon-5" viewBox="0 0 38 32">
<path fill="#ffc59e" style="fill: var(--color1, #ffc59e)" d="M28.577 8.997l8.904 8.882c0.569 0.568 0.569 1.489 0 2.057s-1.493 0.568-2.062 0l-3.343-3.335v13.943c0 0.803-0.653 1.455-1.458 1.455h-23.328c-0.805 0-1.458-0.651-1.458-1.455v-13.944l-3.343 3.335c-0.285 0.284-0.658 0.426-1.031 0.426s-0.746-0.142-1.031-0.426c-0.569-0.568-0.569-1.489 0-2.057l17.495-17.454c0.569-0.568 1.493-0.568 2.062 0l8.593 8.571zM13.045 18.277c0 0.646 0.525 1.171 1.173 1.171s1.173-0.524 1.173-1.171c0-0.647-0.525-1.171-1.173-1.171s-1.173 0.524-1.173 1.171zM17.013 14.274c0.72 0 1.304 0.582 1.304 1.301s-0.584 1.301-1.304 1.301c-0.72 0-1.304-0.582-1.304-1.301s0.583-1.301 1.304-1.301zM15.761 21.251c0 1.759 1.429 3.185 3.193 3.185s3.193-1.426 3.193-3.185c0-1.759-1.429-3.185-3.193-3.185s-3.193 1.426-3.193 3.185zM20.894 16.876c-0.72 0-1.304-0.582-1.304-1.301s0.584-1.301 1.304-1.301c0.72 0 1.304 0.582 1.304 1.301s-0.584 1.301-1.304 1.301zM22.516 18.277c0 0.646 0.525 1.171 1.173 1.171s1.173-0.524 1.173-1.171c0-0.647-0.526-1.171-1.173-1.171s-1.173 0.524-1.173 1.171z"></path>
</symbol>
<symbol id="icon-6" viewBox="0 0 22 32">
<path fill="#ffc59e" style="fill: var(--color1, #ffc59e)" d="M18.606 7.532c-1.038-1.036-2.244-1.848-3.593-2.419l-0.007-0.003c-0.44-0.185-0.949-0.026-1.207 0.373l-0.767 1.191c-0.192-0.066-0.397-0.106-0.608-0.122-0.063-0.003-0.129-0.007-0.195-0.007-0.178 0-0.354 0.020-0.522 0.056l1.772-2.759c0.294-0.459 0.162-1.073-0.301-1.366l-3.613-2.32c-0.165-0.106-0.35-0.155-0.536-0.155-0.327 0-0.648 0.162-0.836 0.455l-6.284 9.782c-0.294 0.459-0.162 1.073 0.301 1.366l0.684 0.439-0.816 1.274c-0.294 0.459-0.162 1.073 0.301 1.366l0.588 0.376c0.459 0.294 1.074 0.162 1.368-0.3l0.195-0.304 0.621-0.97 0.674 0.432c0.165 0.106 0.35 0.155 0.535 0.155 0.327 0 0.648-0.162 0.836-0.455l2.578-4.017c0.053 0.238 0.139 0.462 0.258 0.67 0.102 0.182 0.225 0.35 0.367 0.498 0.476 0.502 1.154 0.812 1.904 0.789 1.325-0.040 2.403-1.116 2.439-2.439 0.010-0.323-0.043-0.634-0.145-0.921 0.691 0.376 1.332 0.855 1.904 1.426 1.573 1.571 2.439 3.657 2.439 5.878s-0.866 4.307-2.439 5.878c-0.978 0.977-2.155 1.68-3.441 2.073-0.096 0.030-0.195 0.043-0.294 0.043h-3.253c-0.549 0-0.992-0.442-0.992-0.99v-0.221h-4.737v4.456c0.102-0.007 0.208-0.010 0.311-0.010h14.22c1.13-0.201 1.993-1.188 1.993-2.376 0-0.733-0.327-1.389-0.843-1.832 0.635-0.799 1.16-1.677 1.56-2.62 0.588-1.393 0.889-2.871 0.889-4.393s-0.297-3-0.889-4.393c-0.572-1.343-1.385-2.551-2.423-3.584zM12.229 9.957c-0.42 0-0.77-0.284-0.873-0.673-0.020-0.073-0.030-0.152-0.030-0.231 0-0.446 0.324-0.815 0.75-0.888 0.050-0.010 0.102-0.013 0.155-0.013 0.499 0 0.902 0.403 0.902 0.901s-0.407 0.904-0.906 0.904zM17.892 25.198c0.126 0 0.245-0.026 0.35-0.076 0.291-0.132 0.496-0.426 0.499-0.772 0-0.274-0.132-0.515-0.334-0.67-0.050-0.036-0.106-0.069-0.162-0.096-0.106-0.050-0.225-0.076-0.35-0.076-0.469 0-0.846 0.38-0.846 0.845 0 0.132 0.030 0.261 0.086 0.373 0.135 0.28 0.423 0.472 0.757 0.472zM11.618 21.041c0.361 0 0.656-0.32 0.656-0.711v-0.331c0-0.391-0.295-0.711-0.656-0.711h-10.961c-0.361 0-0.656 0.32-0.656 0.711v0.331c0 0.391 0.295 0.711 0.656 0.711h10.961zM0 32c0-2.312 1.711-4.207 3.884-4.373 0.103-0.007 0.206-0.010 0.312-0.010h14.215v3.342c0 0.576-0.445 1.041-0.997 1.041h-17.414z"></path>
</symbol>
<symbol id="icon-7" viewBox="0 0 32 32">
<path fill="#ffc59e" style="fill: var(--color1, #ffc59e)" d="M17 10.068v2.2l1.906-1.1 1 1.734-1.906 1.098 1.906 1.1-1 1.732-1.906-1.1v2.2h-2v-2.2l-1.906 1.1-1-1.732 1.906-1.1-1.906-1.1 1-1.732 1.906 1.1v-2.2h2zM26.5 18c-0.276 0-0.5 0.224-0.5 0.5v0 1c0 0.276 0.224 0.5 0.5 0.5h1c0.276 0 0.5-0.224 0.5-0.5v0-1c0-0.276-0.224-0.5-0.5-0.5v0h-1zM26 22.5c0-0.276 0.224-0.5 0.5-0.5v0h1c0.276 0 0.5 0.224 0.5 0.5v0 1c0 0.276-0.224 0.5-0.5 0.5v0h-1c-0.276 0-0.5-0.224-0.5-0.5v0-1zM26.5 26c-0.276 0-0.5 0.224-0.5 0.5v0 1c0 0.276 0.224 0.5 0.5 0.5h1c0.276 0 0.5-0.224 0.5-0.5v0-1c0-0.276-0.224-0.5-0.5-0.5v0h-1zM4.5 18c-0.276 0-0.5 0.224-0.5 0.5v0 1c0 0.276 0.224 0.5 0.5 0.5h1c0.276 0 0.5-0.224 0.5-0.5v0-1c0-0.276-0.224-0.5-0.5-0.5v0h-1zM4.5 22c-0.276 0-0.5 0.224-0.5 0.5v0 1c0 0.276 0.224 0.5 0.5 0.5h1c0.276 0 0.5-0.224 0.5-0.5v0-1c0-0.276-0.224-0.5-0.5-0.5v0h-1zM4 26.5c0-0.276 0.224-0.5 0.5-0.5v0h1c0.276 0 0.5 0.224 0.5 0.5v0 1c0 0.276-0.224 0.5-0.5 0.5v0h-1c-0.276 0-0.5-0.224-0.5-0.5v0-1z"></path>
<path fill="#ffc59e" style="fill: var(--color1, #ffc59e)" d="M10 2c0-1.105 0.895-2 2-2v0h8c1.105 0 2 0.895 2 2v0 2c1.105 0 2 0.895 2 2v0 8h6c1.105 0 2 0.895 2 2v0 14c0 1.105-0.895 2-2 2v0h-28c-1.105 0-2-0.895-2-2v0-14c0-1.105 0.895-2 2-2v0h6v-8c0-1.105 0.895-2 2-2v0-2zM14 30h4v-6h-4v6zM20 30h2v-24h-12v24h2v-6c0-1.105 0.895-2 2-2v0h4c1.105 0 2 0.895 2 2v0 6zM20 2h-8v2h8v-2zM24 16v14h6v-14h-6zM8 30v-14h-6v14h6z"></path>
</symbol>
<symbol id="icon-8" viewBox="0 0 32 32">
<path fill="#ffc59e" style="fill: var(--color1, #ffc59e)" d="M17.709 2.485c3.265-3.314 8.577-3.314 11.842 0 3.264 3.316 3.264 8.71 0 12.024l-1.341 1.488c-1.122-0.488-2.354-0.761-3.65-0.761-2.258 0-4.304 0.854-5.917 2.218l-7.839-7.959 6.904-7.010zM9.197 10.805l7.842 7.89c-1.281 1.603-2.080 3.611-2.080 5.823 0 1.302 0.269 2.541 0.749 3.669l-1.369 1.384c-3.262 3.281-8.631 3.218-11.893-0.062-3.261-3.282-3.261-8.622 0-11.904l6.751-6.799zM17.039 24.312c0 3.752 2.906 6.815 6.649 7.273v-14.545c-3.744 0.458-6.649 3.52-6.649 7.273zM25.351 31.584v-14.545c3.744 0.458 6.649 3.52 6.649 7.273s-2.906 6.815-6.649 7.273z"></path>
</symbol>
<symbol id="icon-9" viewBox="0 0 35 32">
<path fill="#ffc59e" style="fill: var(--color1, #ffc59e)" d="M27.605 0.678c-2.119-1.255-4.857-0.586-6.063 1.525l-6.2 10.859-4.495-0.855c0.228-2.781-1.694-5.363-4.48-5.893-2.942-0.559-5.732 1.382-6.232 4.336s1.48 5.803 4.423 6.362c2.019 0.384 3.966-0.411 5.151-1.901l5.505 1.047-2.761 4.836c-1.912-0.070-3.784 0.886-4.797 2.659-1.476 2.585-0.569 5.925 2.024 7.461s5.893 0.686 7.369-1.898c1.397-2.448 0.658-5.572-1.627-7.201l2.254-3.949 12.36 2.35c2.404 0.457 4.691-1.178 5.099-3.592l-15.11-2.872 7.579-13.275zM6.675 14.411c-1.397 0.64-3.067 0.008-3.729-1.411s-0.067-3.090 1.331-3.73c1.398-0.64 3.067-0.008 3.73 1.411s0.067 3.090-1.331 3.73zM9.747 27.586c0.662 1.42 2.332 2.051 3.73 1.411s1.993-2.31 1.331-3.73c-0.662-1.42-2.332-2.052-3.73-1.411s-1.993 2.31-1.331 3.73z"></path>
</symbol>
</defs>
</svg>
