<svg aria-hidden="true" style="position: absolute; width: 0; height: 0; overflow: hidden;" version="1.1" xmlns="http://www.w3.org/2000/svg" xmlns:xlink="http://www.w3.org/1999/xlink">
<defs>
<symbol id="icon-fb" viewBox="0 0 32 32">
<path fill="#fff" style="fill: var(--color1, #fff)" d="M0 16c0-8.836 7.164-16 16-16s16 7.162 16 16c0 8.836-7.164 16-16 16s-16-7.164-16-16zM17.514 16l2.622-0.002 0.35-3.308h-2.976l0.004-1.656c0-0.862 0.060-1.324 1.298-1.324h1.656v-3.31h-2.648c-3.178 0-3.91 1.642-3.91 4.342l0.004 1.948-2.4 0.002v3.308h2.4v9.6h3.598l0.002-9.6z"></path>
</symbol>
<symbol id="icon-inst" viewBox="0 0 32 32">
<path fill="" style="fill: var(--color1, #fff)" d="M16 0c-8.835 0-16 7.165-16 16s7.165 16 16 16c8.835 0 16-7.165 16-16s-7.165-16-16-16zM25.132 19.788c-0.044 0.978-0.2 1.646-0.427 2.23-0.477 1.234-1.453 2.21-2.687 2.687-0.584 0.227-1.252 0.382-2.23 0.427-0.98 0.045-1.293 0.055-3.788 0.055s-2.808-0.011-3.788-0.055c-0.978-0.045-1.646-0.2-2.23-0.427-0.613-0.231-1.168-0.592-1.627-1.060-0.467-0.459-0.829-1.014-1.060-1.627-0.227-0.584-0.383-1.252-0.427-2.23-0.045-0.98-0.056-1.293-0.056-3.788s0.011-2.808 0.055-3.788c0.044-0.978 0.2-1.646 0.427-2.23 0.231-0.613 0.593-1.168 1.060-1.627 0.459-0.468 1.014-0.829 1.627-1.060 0.584-0.227 1.252-0.382 2.23-0.427 0.98-0.045 1.293-0.055 3.788-0.055s2.808 0.011 3.788 0.056c0.978 0.044 1.646 0.2 2.23 0.426 0.613 0.231 1.168 0.593 1.627 1.060 0.467 0.459 0.829 1.014 1.060 1.627 0.227 0.584 0.383 1.252 0.427 2.23 0.045 0.98 0.055 1.293 0.055 3.788s-0.010 2.808-0.055 3.788zM23.116 10.636c-0.148-0.401-0.384-0.764-0.69-1.061-0.298-0.307-0.66-0.543-1.061-0.69-0.325-0.126-0.814-0.277-1.714-0.318-0.973-0.044-1.265-0.054-3.73-0.054s-2.756 0.009-3.73 0.054c-0.9 0.041-1.389 0.192-1.714 0.318-0.401 0.148-0.764 0.384-1.061 0.69-0.307 0.298-0.542 0.66-0.691 1.061-0.126 0.325-0.277 0.814-0.318 1.714-0.044 0.973-0.054 1.265-0.054 3.73s0.010 2.756 0.054 3.73c0.041 0.9 0.191 1.388 0.318 1.714 0.148 0.401 0.384 0.764 0.69 1.061 0.298 0.307 0.66 0.543 1.061 0.69 0.325 0.127 0.814 0.277 1.714 0.318 0.973 0.044 1.265 0.054 3.729 0.054s2.757-0.009 3.73-0.054c0.9-0.041 1.389-0.191 1.714-0.318 0.805-0.31 1.441-0.947 1.752-1.752 0.126-0.325 0.277-0.814 0.318-1.714 0.044-0.973 0.054-1.265 0.054-3.73s-0.009-2.756-0.054-3.73c-0.041-0.9-0.191-1.389-0.318-1.714zM15.921 20.818c-2.618 0-4.74-2.122-4.74-4.739s2.122-4.739 4.74-4.739c2.617 0 4.739 2.122 4.739 4.739s-2.122 4.739-4.739 4.739zM19.74 11.152c0 0.612 0.496 1.108 1.108 1.108s1.107-0.496 1.108-1.108c0-0.612-0.496-1.108-1.108-1.108s-1.108 0.496-1.108 1.108zM19.074 16c0 1.698-1.376 3.074-3.074 3.074s-3.074-1.376-3.074-3.074 1.376-3.074 3.074-3.074c1.698 0 3.074 1.376 3.074 3.074z"></path>
</symbol>
<symbol id="icon-twitter" viewBox="-2 -2 40 40">
<path fill="#fff" style="fill: var(--color1, #fff)" d="M10.052 30c12.076 0 18.682-10.006 18.682-18.668 0-0.28 0-0.564-0.012-0.844 1.291-0.942 2.378-2.069 3.248-3.357l0.030-0.047c-1.1 0.499-2.376 0.863-3.713 1.029l-0.065 0.007c1.36-0.823 2.383-2.085 2.881-3.587l0.013-0.047c-1.201 0.724-2.6 1.275-4.091 1.572l-0.083 0.014c-1.202-1.278-2.903-2.073-4.791-2.073-3.63 0-6.572 2.942-6.572 6.572 0 0.528 0.062 1.042 0.18 1.534l-0.009-0.045c-5.469-0.283-10.281-2.88-13.508-6.825l-0.026-0.033c-0.557 0.945-0.885 2.082-0.885 3.296 0 2.27 1.149 4.271 2.898 5.453l0.023 0.015c-1.096-0.038-2.114-0.336-3.006-0.833l0.034 0.017v0.090c0.004 3.164 2.242 5.805 5.221 6.428l0.043 0.008c-0.51 0.146-1.096 0.23-1.701 0.23-0.010 0-0.020-0-0.030-0h0.002c-0.006 0-0.013 0-0.020 0-0.427 0-0.845-0.041-1.249-0.121l0.041 0.007c0.864 2.628 3.274 4.502 6.128 4.554l0.006 0c-2.217 1.754-5.054 2.814-8.139 2.814-0.008 0-0.015 0-0.023-0h0.001c-0.016 0-0.035 0-0.053 0-0.531 0-1.054-0.033-1.568-0.096l0.061 0.006c2.843 1.838 6.317 2.93 10.046 2.93 0.002 0 0.004 0 0.006 0h-0z"></path>
</symbol>
<symbol id="icon-youtube" viewBox="0 0 32 32">
<path fill="#fff" style="fill: var(--color1, #fff)" d="M16 0c-8.835 0-16 7.165-16 16s7.165 16 16 16c8.835 0 16-7.165 16-16s-7.165-16-16-16zM25.998 16.016c0 0 0 3.245-0.412 4.81-0.231 0.856-0.906 1.532-1.762 1.762-1.565 0.412-7.824 0.412-7.824 0.412s-6.242 0-7.823-0.428c-0.856-0.23-1.532-0.906-1.762-1.762-0.412-1.548-0.412-4.809-0.412-4.809s0-3.245 0.412-4.809c0.23-0.856 0.922-1.548 1.762-1.779 1.565-0.412 7.823-0.412 7.823-0.412s6.259 0 7.824 0.428c0.856 0.23 1.532 0.906 1.762 1.762 0.428 1.565 0.412 4.826 0.412 4.826zM19.212 16l-5.205 2.998v-5.995l5.205 2.998z"></path>
</symbol>
<symbol id="icon-logo" viewBox="0 0 32 32">
<path fill="#fff" style="fill: var(--color1, #fff)" d="M16 0c8.837 0 16 7.163 16 16s-7.163 16-16 16c-8.837 0-16-7.163-16-16s7.163-16 16-16zM4.904 19.568c0.221-0.063 0.088-0.37-0.253-0.182-0.236 0.131-0.412 0.354-0.381 0.627 0.106 0.91 0.872 0.911 1.535 0.912 0.050 0 0.099 0 0.148 0.001-0.016 0.081-0.022 0.186-0.028 0.298-0.010 0.186-0.022 0.393-0.084 0.548-0.112 0.277-0.304 0.418-0.389 0.481-0.011 0.008-0.020 0.015-0.027 0.020-0.049 0.039-0.164 0.396-0.226 0.591-0.018 0.055-0.031 0.097-0.038 0.116-0.031 0.087 0.053 0.479 0.099 0.543s0.257 0.089 0.286 0.062c0.024-0.023 0.027-0.027 0.011-0.057l-0.011-0.022c-0.027-0.052-0.053-0.109-0.068-0.208s0.073-0.432 0.099-0.504c0.016-0.042 0.173-0.097 0.344-0.156 0.119-0.041 0.244-0.084 0.332-0.127 0.114-0.056 0.224-0.128 0.302-0.18 0.068-0.045 0.112-0.074 0.115-0.063 0.005 0.025-0.015 0.427-0.029 0.516s0.145 0.238 0.3 0.372c0.071 0.062 0.111 0.126 0.144 0.181 0.039 0.064 0.069 0.113 0.132 0.127 0.116 0.025 0.286 0 0.354-0.015 0.026-0.006 0.048 0.001 0.066 0.007 0.029 0.009 0.051 0.017 0.075-0.032 0.039-0.079-0.029-0.144-0.087-0.184-0.019-0.013-0.047-0.027-0.079-0.044-0.066-0.034-0.148-0.076-0.197-0.13-0.009-0.010-0.018-0.020-0.028-0.031-0.073-0.078-0.168-0.18-0.151-0.232 0.007-0.021 0.035-0.059 0.070-0.105 0.063-0.083 0.147-0.195 0.172-0.297 0.039-0.159 0.058-0.268 0.058-0.268s0.267 0.020 0.499 0.079c0.233 0.060 0.678 0.055 0.678 0.055s-0.068 0.119-0.116 0.208c-0.004 0.007-0.008 0.015-0.013 0.023-0.053 0.096-0.148 0.268-0.099 0.364 0.053 0.104 0.286 0.526 0.412 0.576 0.093 0.036 0.172 0.027 0.237 0.020 0.023-0.003 0.044-0.005 0.064-0.005 0.073 0 0.116-0.020 0.077-0.089-0.032-0.058-0.071-0.074-0.109-0.087l-0.022-0.007c-0.007-0.002-0.014-0.005-0.021-0.007-0.037-0.011-0.076-0.023-0.104-0.073-0.034-0.060-0.063-0.213-0.063-0.308 0-0.065 0.117-0.191 0.225-0.307 0.049-0.052 0.095-0.103 0.129-0.144 0.107-0.134 0.14-0.213 0.14-0.213s0.034 0.288 0.073 0.392c0.039 0.104 0.291 0.313 0.45 0.427 0.098 0.070 0.145 0.149 0.178 0.205 0.021 0.035 0.036 0.060 0.055 0.068 0.048 0.020 0.204 0.052 0.266 0.032s0.114-0.060 0.056-0.124c-0.038-0.042-0.087-0.074-0.129-0.101-0.022-0.014-0.042-0.027-0.058-0.040-0.046-0.037-0.349-0.474-0.378-0.662s-0.039-0.303-0.014-0.417c0.024-0.114 0.044-0.144 0.044-0.144l0.015-0.015c0.043-0.043 0.167-0.164 0.225-0.208 0.070-0.055 0.443-0.114 0.523-0.067 0.016 0.010 0.030 0.019 0.042 0.027 0.048 0.033 0.075 0.052 0.156 0.012 0.084-0.041 0.158-0.121 0.195-0.162 0.008-0.009 0.014-0.015 0.018-0.020 0.014-0.013 0.018-0.016 0.024-0.019 0.004-0.002 0.008-0.005 0.017-0.012 0.021-0.017 0.024-0.021 0.019-0.042-0.002-0.007-0.015-0.032-0.034-0.067-0.040-0.075-0.103-0.191-0.113-0.248-0.004-0.025-0.006-0.042-0.007-0.056-0.002-0.032-0.003-0.045-0.038-0.094-0.030-0.042-0.112-0.113-0.173-0.166-0.041-0.036-0.073-0.063-0.071-0.066l0.001-0.001c0.008-0.014 0.054-0.095 0.054-0.124 0-0.030-0.188 0.020-0.188 0.020s0.031-0.042 0.024-0.102c-0.007-0.060-0.022-0.093-0.031-0.094s-0.142 0.092-0.182 0.139c-0.040 0.047-0.057 0.066-0.063 0.067-0.001 0-0.005 0.002-0.011 0.004-0.061 0.022-0.353 0.128-0.538 0.126-0.163-0.002-0.406-0.040-0.601-0.070-0.051-0.008-0.098-0.015-0.14-0.021-0.054-0.008-0.149-0.028-0.267-0.054-0.324-0.070-0.828-0.18-1.18-0.177-0.48 0.005-0.945 0.024-0.993 0.045-0.239 0.060-1.202 0.187-1.553 0.094-0.489-0.129-0.642-0.797-0.153-0.936zM23.91 21.645l-6.145-14.89h-3.157l-5.306 12.931c0.021-0.014 0.043-0.029 0.069-0.047 0.013-0.009 0.026-0.018 0.040-0.028 0.042-0.029 0.117-0.078 0.206-0.135 0.224-0.145 0.532-0.346 0.603-0.417 0.099-0.099 0.294-0.435 0.372-0.702s0.278-0.638 0.337-0.737l0.006-0.010c0.058-0.097 0.128-0.213 0.132-0.288 0.002-0.049 0.037-0.123 0.079-0.209 0.024-0.051 0.050-0.106 0.073-0.162 0.030-0.075 0.052-0.176 0.070-0.258s0.032-0.149 0.047-0.15c0.029-0.003 0.104 0.16 0.143 0.257s0.132 0.305 0.147 0.337c0.014 0.029 0.076 0.045 0.13 0.059 0.005 0.001 0.010 0.003 0.014 0.004 0.027 0.007 0.078 0.033 0.134 0.061 0.060 0.030 0.125 0.063 0.172 0.079 0.092 0.031 0.115 0.052 0.156 0.092 0.018 0.018 0.033 0.041 0.050 0.065 0.020 0.030 0.042 0.063 0.074 0.093 0.057 0.053 0.197 0.082 0.313 0.106 0.061 0.012 0.137 0.041 0.211 0.069 0.065 0.025 0.128 0.049 0.177 0.060 0.104 0.023 0.092 0.058 0.072 0.113s-0.083 0.156-0.134 0.214c-0.012 0.014-0.022 0.028-0.033 0.042-0.034 0.045-0.069 0.094-0.166 0.147-0.11 0.060-0.201 0.063-0.286 0.066-0.013 0-0.025 0.001-0.038 0.001-0.036 0.002-0.077 0.008-0.119 0.014-0.070 0.011-0.146 0.023-0.216 0.016-0.079-0.008-0.125-0.002-0.172 0.004-0.020 0.003-0.040 0.005-0.063 0.007-0.058 0.004-0.068 0.018-0.081 0.037-0.004 0.006-0.009 0.014-0.017 0.021-0.029 0.029-0.090 0.184-0.104 0.412-0.004 0.073-0.012 0.159-0.019 0.247-0.016 0.187-0.032 0.381-0.023 0.473 0.008 0.089 0.049 0.211 0.096 0.354 0.025 0.076 0.052 0.158 0.077 0.244 0.056 0.189 0.046 0.347 0.039 0.47-0.002 0.039-0.004 0.075-0.004 0.107 0.001 0.122-0.060 0.286-0.107 0.413-0.004 0.010-0.007 0.020-0.011 0.029-0.008 0.020-0.034 0.088-0.072 0.187-0.153 0.394-0.502 1.293-0.677 1.8l3.138-0.001v-0.508c-1.26-0.047-1.891-0.457-1.891-1.229 0-0.268 0.055-0.544 0.165-0.827l0.851-2.174h5.542l1.134 2.73c0.063 0.15 0.095 0.311 0.095 0.485 0 0.63-0.717 0.969-2.151 1.016v0.508h7.717v-0.508h-0.095c-0.764 0-1.296-0.362-1.595-1.087zM13.629 17.556l2.316-5.979 2.47 5.979h-4.786z"></path>
</symbol>
</defs>
</svg>
